<svg xmlns="http://www.w3.org/2000/svg" fill="none" viewBox="0.76 114.5 352.24 392.5">
<path d="M12.5 164V116" stroke="#43464D"/>
<path d="M14 117.5C14 116.672 13.3284 116 12.5 116C11.6716 116 11 116.672 11 117.5V146.5C11 147.328 11.6716 148 12.5 148C13.3284 148 14 147.328 14 146.5V117.5Z" fill="#78CBBB"/>
<path d="M31.5 186V115" stroke="#43464D"/>
<path d="M33 139.5C33 138.672 32.3284 138 31.5 138C30.6716 138 30 138.672 30 139.5V162.5C30 163.328 30.6716 164 31.5 164C32.3284 164 33 163.328 33 162.5V139.5Z" fill="#FF3165"/>
<path d="M53.5 260V148" stroke="#43464D"/>
<path d="M55 174.5C55 173.672 54.3284 173 53.5 173C52.6716 173 52 173.672 52 174.5V232.5C52 233.328 52.6716 234 53.5 234C54.3284 234 55 233.328 55 232.5V174.5Z" fill="#FF3165"/>
<path d="M74.5 260V140" stroke="#43464D"/>
<path d="M76 158.5C76 157.672 75.3284 157 74.5 157C73.6716 157 73 157.672 73 158.5V202.5C73 203.328 73.6716 204 74.5 204C75.3284 204 76 203.328 76 202.5V158.5Z" fill="#78CBBB"/>
<path d="M94.5 252V140" stroke="#43464D"/>
<path d="M96 175.5C96 174.672 95.3284 174 94.5 174C93.6716 174 93 174.672 93 175.5V203.5C93 204.328 93.6716 205 94.5 205C95.3284 205 96 204.328 96 203.5V175.5Z" fill="#FF3165"/>
<path d="M115.5 196V157" stroke="#43464D"/>
<path d="M117 165.5C117 164.672 116.328 164 115.5 164C114.672 164 114 164.672 114 165.5V178.5C114 179.328 114.672 180 115.5 180C116.328 180 117 179.328 117 178.5V165.5Z" fill="#78CBBB"/>
<path d="M136.5 269V157" stroke="#43464D"/>
<path d="M138 165.5C138 164.672 137.328 164 136.5 164C135.672 164 135 164.672 135 165.5V241.5C135 242.328 135.672 243 136.5 243C137.328 243 138 242.328 138 241.5V165.5Z" fill="#FF3165"/>
<path d="M156.5 269V182" stroke="#43464D"/>
<path d="M158 183.5C158 182.672 157.328 182 156.5 182C155.672 182 155 182.672 155 183.5V241.5C155 242.328 155.672 243 156.5 243C157.328 243 158 242.328 158 241.5V183.5Z" fill="#78CBBB"/>
<path d="M177.5 297V182" stroke="#43464D"/>
<path d="M179 183.5C179 182.672 178.328 182 177.5 182C176.672 182 176 182.672 176 183.5V274.5C176 275.328 176.672 276 177.5 276C178.328 276 179 275.328 179 274.5V183.5Z" fill="#FF3165"/>
<path d="M198.5 333V244" stroke="#43464D"/>
<path d="M200 266.5C200 265.672 199.328 265 198.5 265C197.672 265 197 265.672 197 266.5V305.5C197 306.328 197.672 307 198.5 307C199.328 307 200 306.328 200 305.5V266.5Z" fill="#FF3165"/>
<path d="M218.5 339V227" stroke="#43464D"/>
<path d="M220 253.5C220 252.672 219.328 252 218.5 252C217.672 252 217 252.672 217 253.5V266.5C217 267.328 217.672 268 218.5 268C219.328 268 220 267.328 220 266.5V253.5Z" fill="#78CBBB"/>
<path d="M239.5 307V244" stroke="#43464D"/>
<path d="M241 270.5C241 269.672 240.328 269 239.5 269C238.672 269 238 269.672 238 270.5V299.5C238 300.328 238.672 301 239.5 301C240.328 301 241 300.328 241 299.5V270.5Z" fill="#FF3165"/>
<path d="M260.5 430V116" stroke="#548A82"/>
<path d="M265 266.5C265 264.015 262.985 262 260.5 262C258.015 262 256 264.015 256 266.5V318.5C256 320.985 258.015 323 260.5 323C262.985 323 265 320.985 265 318.5V266.5Z" fill="#548A82"/>
<path d="M259 279.5C259 278.672 259.672 278 260.5 278C261.328 278 262 278.672 262 279.5V305.5C262 306.328 261.328 307 260.5 307C259.672 307 259 306.328 259 305.5V279.5Z" fill="#78CBBB"/>
<path d="M317.459 125H316.295V117.92L314.687 119.264L314.003 118.46L316.415 116.504H317.459V125ZM325.976 117.536H322.472L322.4 119.768C322.56 119.712 322.736 119.672 322.928 119.648C323.128 119.624 323.316 119.612 323.492 119.612C323.9 119.612 324.276 119.676 324.62 119.804C324.972 119.924 325.272 120.1 325.52 120.332C325.776 120.564 325.976 120.848 326.12 121.184C326.264 121.512 326.336 121.88 326.336 122.288C326.336 122.736 326.26 123.14 326.108 123.5C325.956 123.86 325.748 124.168 325.484 124.424C325.22 124.672 324.908 124.864 324.548 125C324.188 125.144 323.796 125.216 323.372 125.216C322.708 125.216 322.148 125.064 321.692 124.76C321.236 124.448 320.892 124.032 320.66 123.512L321.716 123.092C321.852 123.436 322.064 123.712 322.352 123.92C322.648 124.128 322.988 124.232 323.372 124.232C323.62 124.232 323.852 124.188 324.068 124.1C324.284 124.012 324.472 123.888 324.632 123.728C324.792 123.568 324.916 123.376 325.004 123.152C325.1 122.928 325.148 122.68 325.148 122.408C325.148 122.088 325.092 121.812 324.98 121.58C324.876 121.34 324.732 121.144 324.548 120.992C324.364 120.84 324.152 120.728 323.912 120.656C323.672 120.584 323.42 120.548 323.156 120.548C322.836 120.548 322.508 120.592 322.172 120.68C321.836 120.768 321.536 120.88 321.272 121.016L321.392 116.504H325.976V117.536ZM330.857 116.288C331.361 116.288 331.793 116.404 332.153 116.636C332.521 116.868 332.821 117.188 333.053 117.596C333.293 117.996 333.469 118.468 333.581 119.012C333.693 119.556 333.749 120.136 333.749 120.752C333.749 121.376 333.693 121.96 333.581 122.504C333.469 123.04 333.293 123.512 333.053 123.92C332.821 124.32 332.521 124.636 332.153 124.868C331.793 125.1 331.361 125.216 330.857 125.216C330.353 125.216 329.917 125.1 329.549 124.868C329.181 124.636 328.877 124.32 328.637 123.92C328.405 123.512 328.233 123.04 328.121 122.504C328.009 121.96 327.953 121.376 327.953 120.752C327.953 120.136 328.009 119.556 328.121 119.012C328.233 118.468 328.405 117.996 328.637 117.596C328.877 117.188 329.181 116.868 329.549 116.636C329.917 116.404 330.353 116.288 330.857 116.288ZM330.857 117.26C330.505 117.26 330.217 117.376 329.993 117.608C329.769 117.832 329.593 118.12 329.465 118.472C329.345 118.816 329.261 119.192 329.213 119.6C329.165 120.008 329.141 120.392 329.141 120.752C329.141 121.112 329.165 121.496 329.213 121.904C329.261 122.312 329.345 122.688 329.465 123.032C329.593 123.376 329.769 123.664 329.993 123.896C330.217 124.12 330.505 124.232 330.857 124.232C331.201 124.232 331.481 124.12 331.697 123.896C331.921 123.664 332.097 123.376 332.225 123.032C332.353 122.688 332.441 122.312 332.489 121.904C332.537 121.496 332.561 121.112 332.561 120.752C332.561 120.392 332.537 120.008 332.489 119.6C332.441 119.192 332.353 118.816 332.225 118.472C332.097 118.12 331.921 117.832 331.697 117.608C331.481 117.376 331.201 117.26 330.857 117.26ZM335.833 126.596H334.873L335.701 123.596H336.829L335.833 126.596ZM341.207 116.288C341.711 116.288 342.143 116.404 342.503 116.636C342.871 116.868 343.171 117.188 343.403 117.596C343.643 117.996 343.819 118.468 343.931 119.012C344.043 119.556 344.099 120.136 344.099 120.752C344.099 121.376 344.043 121.96 343.931 122.504C343.819 123.04 343.643 123.512 343.403 123.92C343.171 124.32 342.871 124.636 342.503 124.868C342.143 125.1 341.711 125.216 341.207 125.216C340.703 125.216 340.267 125.1 339.899 124.868C339.531 124.636 339.227 124.32 338.987 123.92C338.755 123.512 338.583 123.04 338.471 122.504C338.359 121.96 338.303 121.376 338.303 120.752C338.303 120.136 338.359 119.556 338.471 119.012C338.583 118.468 338.755 117.996 338.987 117.596C339.227 117.188 339.531 116.868 339.899 116.636C340.267 116.404 340.703 116.288 341.207 116.288ZM341.207 117.26C340.855 117.26 340.567 117.376 340.343 117.608C340.119 117.832 339.943 118.12 339.815 118.472C339.695 118.816 339.611 119.192 339.563 119.6C339.515 120.008 339.491 120.392 339.491 120.752C339.491 121.112 339.515 121.496 339.563 121.904C339.611 122.312 339.695 122.688 339.815 123.032C339.943 123.376 340.119 123.664 340.343 123.896C340.567 124.12 340.855 124.232 341.207 124.232C341.551 124.232 341.831 124.12 342.047 123.896C342.271 123.664 342.447 123.376 342.575 123.032C342.703 122.688 342.791 122.312 342.839 121.904C342.887 121.496 342.911 121.112 342.911 120.752C342.911 120.392 342.887 120.008 342.839 119.6C342.791 119.192 342.703 118.816 342.575 118.472C342.447 118.12 342.271 117.832 342.047 117.608C341.831 117.376 341.551 117.26 341.207 117.26ZM348.391 116.288C348.895 116.288 349.327 116.404 349.687 116.636C350.055 116.868 350.355 117.188 350.587 117.596C350.827 117.996 351.003 118.468 351.115 119.012C351.227 119.556 351.283 120.136 351.283 120.752C351.283 121.376 351.227 121.96 351.115 122.504C351.003 123.04 350.827 123.512 350.587 123.92C350.355 124.32 350.055 124.636 349.687 124.868C349.327 125.1 348.895 125.216 348.391 125.216C347.887 125.216 347.451 125.1 347.083 124.868C346.715 124.636 346.411 124.32 346.171 123.92C345.939 123.512 345.767 123.04 345.655 122.504C345.543 121.96 345.487 121.376 345.487 120.752C345.487 120.136 345.543 119.556 345.655 119.012C345.767 118.468 345.939 117.996 346.171 117.596C346.411 117.188 346.715 116.868 347.083 116.636C347.451 116.404 347.887 116.288 348.391 116.288ZM348.391 117.26C348.039 117.26 347.751 117.376 347.527 117.608C347.303 117.832 347.127 118.12 346.999 118.472C346.879 118.816 346.795 119.192 346.747 119.6C346.699 120.008 346.675 120.392 346.675 120.752C346.675 121.112 346.699 121.496 346.747 121.904C346.795 122.312 346.879 122.688 346.999 123.032C347.127 123.376 347.303 123.664 347.527 123.896C347.751 124.12 348.039 124.232 348.391 124.232C348.735 124.232 349.015 124.12 349.231 123.896C349.455 123.664 349.631 123.376 349.759 123.032C349.887 122.688 349.975 122.312 350.023 121.904C350.071 121.496 350.095 121.112 350.095 120.752C350.095 120.392 350.071 120.008 350.023 119.6C349.975 119.192 349.887 118.816 349.759 118.472C349.631 118.12 349.455 117.832 349.231 117.608C349.015 117.376 348.735 117.26 348.391 117.26Z" fill="white"/>
<path d="M317.459 174H316.295V166.92L314.687 168.264L314.003 167.46L316.415 165.504H317.459V174ZM325.508 171.096H326.732V172.092H325.508V174H324.38V172.092H320.468V171.036L324.08 165.504H325.508V171.096ZM324.38 166.836H324.356L321.668 171.096H324.38V166.836ZM330.857 165.288C331.361 165.288 331.793 165.404 332.153 165.636C332.521 165.868 332.821 166.188 333.053 166.596C333.293 166.996 333.469 167.468 333.581 168.012C333.693 168.556 333.749 169.136 333.749 169.752C333.749 170.376 333.693 170.96 333.581 171.504C333.469 172.04 333.293 172.512 333.053 172.92C332.821 173.32 332.521 173.636 332.153 173.868C331.793 174.1 331.361 174.216 330.857 174.216C330.353 174.216 329.917 174.1 329.549 173.868C329.181 173.636 328.877 173.32 328.637 172.92C328.405 172.512 328.233 172.04 328.121 171.504C328.009 170.96 327.953 170.376 327.953 169.752C327.953 169.136 328.009 168.556 328.121 168.012C328.233 167.468 328.405 166.996 328.637 166.596C328.877 166.188 329.181 165.868 329.549 165.636C329.917 165.404 330.353 165.288 330.857 165.288ZM330.857 166.26C330.505 166.26 330.217 166.376 329.993 166.608C329.769 166.832 329.593 167.12 329.465 167.472C329.345 167.816 329.261 168.192 329.213 168.6C329.165 169.008 329.141 169.392 329.141 169.752C329.141 170.112 329.165 170.496 329.213 170.904C329.261 171.312 329.345 171.688 329.465 172.032C329.593 172.376 329.769 172.664 329.993 172.896C330.217 173.12 330.505 173.232 330.857 173.232C331.201 173.232 331.481 173.12 331.697 172.896C331.921 172.664 332.097 172.376 332.225 172.032C332.353 171.688 332.441 171.312 332.489 170.904C332.537 170.496 332.561 170.112 332.561 169.752C332.561 169.392 332.537 169.008 332.489 168.6C332.441 168.192 332.353 167.816 332.225 167.472C332.097 167.12 331.921 166.832 331.697 166.608C331.481 166.376 331.201 166.26 330.857 166.26ZM335.833 175.596H334.873L335.701 172.596H336.829L335.833 175.596ZM341.207 165.288C341.711 165.288 342.143 165.404 342.503 165.636C342.871 165.868 343.171 166.188 343.403 166.596C343.643 166.996 343.819 167.468 343.931 168.012C344.043 168.556 344.099 169.136 344.099 169.752C344.099 170.376 344.043 170.96 343.931 171.504C343.819 172.04 343.643 172.512 343.403 172.92C343.171 173.32 342.871 173.636 342.503 173.868C342.143 174.1 341.711 174.216 341.207 174.216C340.703 174.216 340.267 174.1 339.899 173.868C339.531 173.636 339.227 173.32 338.987 172.92C338.755 172.512 338.583 172.04 338.471 171.504C338.359 170.96 338.303 170.376 338.303 169.752C338.303 169.136 338.359 168.556 338.471 168.012C338.583 167.468 338.755 166.996 338.987 166.596C339.227 166.188 339.531 165.868 339.899 165.636C340.267 165.404 340.703 165.288 341.207 165.288ZM341.207 166.26C340.855 166.26 340.567 166.376 340.343 166.608C340.119 166.832 339.943 167.12 339.815 167.472C339.695 167.816 339.611 168.192 339.563 168.6C339.515 169.008 339.491 169.392 339.491 169.752C339.491 170.112 339.515 170.496 339.563 170.904C339.611 171.312 339.695 171.688 339.815 172.032C339.943 172.376 340.119 172.664 340.343 172.896C340.567 173.12 340.855 173.232 341.207 173.232C341.551 173.232 341.831 173.12 342.047 172.896C342.271 172.664 342.447 172.376 342.575 172.032C342.703 171.688 342.791 171.312 342.839 170.904C342.887 170.496 342.911 170.112 342.911 169.752C342.911 169.392 342.887 169.008 342.839 168.6C342.791 168.192 342.703 167.816 342.575 167.472C342.447 167.12 342.271 166.832 342.047 166.608C341.831 166.376 341.551 166.26 341.207 166.26ZM348.391 165.288C348.895 165.288 349.327 165.404 349.687 165.636C350.055 165.868 350.355 166.188 350.587 166.596C350.827 166.996 351.003 167.468 351.115 168.012C351.227 168.556 351.283 169.136 351.283 169.752C351.283 170.376 351.227 170.96 351.115 171.504C351.003 172.04 350.827 172.512 350.587 172.92C350.355 173.32 350.055 173.636 349.687 173.868C349.327 174.1 348.895 174.216 348.391 174.216C347.887 174.216 347.451 174.1 347.083 173.868C346.715 173.636 346.411 173.32 346.171 172.92C345.939 172.512 345.767 172.04 345.655 171.504C345.543 170.96 345.487 170.376 345.487 169.752C345.487 169.136 345.543 168.556 345.655 168.012C345.767 167.468 345.939 166.996 346.171 166.596C346.411 166.188 346.715 165.868 347.083 165.636C347.451 165.404 347.887 165.288 348.391 165.288ZM348.391 166.26C348.039 166.26 347.751 166.376 347.527 166.608C347.303 166.832 347.127 167.12 346.999 167.472C346.879 167.816 346.795 168.192 346.747 168.6C346.699 169.008 346.675 169.392 346.675 169.752C346.675 170.112 346.699 170.496 346.747 170.904C346.795 171.312 346.879 171.688 346.999 172.032C347.127 172.376 347.303 172.664 347.527 172.896C347.751 173.12 348.039 173.232 348.391 173.232C348.735 173.232 349.015 173.12 349.231 172.896C349.455 172.664 349.631 172.376 349.759 172.032C349.887 171.688 349.975 171.312 350.023 170.904C350.071 170.496 350.095 170.112 350.095 169.752C350.095 169.392 350.071 169.008 350.023 168.6C349.975 168.192 349.887 167.816 349.759 167.472C349.631 167.12 349.455 166.832 349.231 166.608C349.015 166.376 348.735 166.26 348.391 166.26Z" fill="white"/>
<path d="M317.459 221H316.295V213.92L314.687 215.264L314.003 214.46L316.415 212.504H317.459V221ZM322.652 216.08H323.024C323.264 216.08 323.496 216.06 323.72 216.02C323.952 215.972 324.156 215.896 324.332 215.792C324.508 215.68 324.648 215.532 324.752 215.348C324.864 215.164 324.92 214.936 324.92 214.664C324.92 214.448 324.88 214.256 324.8 214.088C324.72 213.912 324.608 213.764 324.464 213.644C324.328 213.524 324.168 213.432 323.984 213.368C323.808 213.296 323.62 213.26 323.42 213.26C323.06 213.26 322.752 213.352 322.496 213.536C322.248 213.72 322.06 213.976 321.932 214.304L320.876 213.932C321.084 213.42 321.416 213.02 321.872 212.732C322.336 212.436 322.868 212.288 323.468 212.288C323.82 212.288 324.152 212.34 324.464 212.444C324.784 212.54 325.064 212.684 325.304 212.876C325.544 213.068 325.732 213.308 325.868 213.596C326.012 213.884 326.084 214.216 326.084 214.592C326.084 214.832 326.044 215.056 325.964 215.264C325.892 215.472 325.788 215.66 325.652 215.828C325.524 215.996 325.368 216.14 325.184 216.26C325 216.38 324.8 216.468 324.584 216.524V216.548C324.832 216.596 325.06 216.68 325.268 216.8C325.484 216.92 325.668 217.072 325.82 217.256C325.972 217.432 326.092 217.636 326.18 217.868C326.268 218.1 326.312 218.352 326.312 218.624C326.312 219.048 326.232 219.424 326.072 219.752C325.912 220.072 325.7 220.34 325.436 220.556C325.172 220.772 324.868 220.936 324.524 221.048C324.18 221.16 323.828 221.216 323.468 221.216C322.796 221.216 322.204 221.064 321.692 220.76C321.18 220.456 320.808 219.984 320.576 219.344L321.656 218.984C321.784 219.352 322 219.652 322.304 219.884C322.616 220.116 322.996 220.232 323.444 220.232C323.66 220.232 323.868 220.2 324.068 220.136C324.276 220.064 324.46 219.96 324.62 219.824C324.78 219.688 324.908 219.52 325.004 219.32C325.1 219.12 325.148 218.884 325.148 218.612C325.148 218.316 325.084 218.068 324.956 217.868C324.828 217.668 324.66 217.508 324.452 217.388C324.252 217.26 324.024 217.172 323.768 217.124C323.512 217.068 323.26 217.04 323.012 217.04H322.652V216.08ZM330.857 212.288C331.361 212.288 331.793 212.404 332.153 212.636C332.521 212.868 332.821 213.188 333.053 213.596C333.293 213.996 333.469 214.468 333.581 215.012C333.693 215.556 333.749 216.136 333.749 216.752C333.749 217.376 333.693 217.96 333.581 218.504C333.469 219.04 333.293 219.512 333.053 219.92C332.821 220.32 332.521 220.636 332.153 220.868C331.793 221.1 331.361 221.216 330.857 221.216C330.353 221.216 329.917 221.1 329.549 220.868C329.181 220.636 328.877 220.32 328.637 219.92C328.405 219.512 328.233 219.04 328.121 218.504C328.009 217.96 327.953 217.376 327.953 216.752C327.953 216.136 328.009 215.556 328.121 215.012C328.233 214.468 328.405 213.996 328.637 213.596C328.877 213.188 329.181 212.868 329.549 212.636C329.917 212.404 330.353 212.288 330.857 212.288ZM330.857 213.26C330.505 213.26 330.217 213.376 329.993 213.608C329.769 213.832 329.593 214.12 329.465 214.472C329.345 214.816 329.261 215.192 329.213 215.6C329.165 216.008 329.141 216.392 329.141 216.752C329.141 217.112 329.165 217.496 329.213 217.904C329.261 218.312 329.345 218.688 329.465 219.032C329.593 219.376 329.769 219.664 329.993 219.896C330.217 220.12 330.505 220.232 330.857 220.232C331.201 220.232 331.481 220.12 331.697 219.896C331.921 219.664 332.097 219.376 332.225 219.032C332.353 218.688 332.441 218.312 332.489 217.904C332.537 217.496 332.561 217.112 332.561 216.752C332.561 216.392 332.537 216.008 332.489 215.6C332.441 215.192 332.353 214.816 332.225 214.472C332.097 214.12 331.921 213.832 331.697 213.608C331.481 213.376 331.201 213.26 330.857 213.26ZM335.833 222.596H334.873L335.701 219.596H336.829L335.833 222.596ZM341.207 212.288C341.711 212.288 342.143 212.404 342.503 212.636C342.871 212.868 343.171 213.188 343.403 213.596C343.643 213.996 343.819 214.468 343.931 215.012C344.043 215.556 344.099 216.136 344.099 216.752C344.099 217.376 344.043 217.96 343.931 218.504C343.819 219.04 343.643 219.512 343.403 219.92C343.171 220.32 342.871 220.636 342.503 220.868C342.143 221.1 341.711 221.216 341.207 221.216C340.703 221.216 340.267 221.1 339.899 220.868C339.531 220.636 339.227 220.32 338.987 219.92C338.755 219.512 338.583 219.04 338.471 218.504C338.359 217.96 338.303 217.376 338.303 216.752C338.303 216.136 338.359 215.556 338.471 215.012C338.583 214.468 338.755 213.996 338.987 213.596C339.227 213.188 339.531 212.868 339.899 212.636C340.267 212.404 340.703 212.288 341.207 212.288ZM341.207 213.26C340.855 213.26 340.567 213.376 340.343 213.608C340.119 213.832 339.943 214.12 339.815 214.472C339.695 214.816 339.611 215.192 339.563 215.6C339.515 216.008 339.491 216.392 339.491 216.752C339.491 217.112 339.515 217.496 339.563 217.904C339.611 218.312 339.695 218.688 339.815 219.032C339.943 219.376 340.119 219.664 340.343 219.896C340.567 220.12 340.855 220.232 341.207 220.232C341.551 220.232 341.831 220.12 342.047 219.896C342.271 219.664 342.447 219.376 342.575 219.032C342.703 218.688 342.791 218.312 342.839 217.904C342.887 217.496 342.911 217.112 342.911 216.752C342.911 216.392 342.887 216.008 342.839 215.6C342.791 215.192 342.703 214.816 342.575 214.472C342.447 214.12 342.271 213.832 342.047 213.608C341.831 213.376 341.551 213.26 341.207 213.26ZM348.391 212.288C348.895 212.288 349.327 212.404 349.687 212.636C350.055 212.868 350.355 213.188 350.587 213.596C350.827 213.996 351.003 214.468 351.115 215.012C351.227 215.556 351.283 216.136 351.283 216.752C351.283 217.376 351.227 217.96 351.115 218.504C351.003 219.04 350.827 219.512 350.587 219.92C350.355 220.32 350.055 220.636 349.687 220.868C349.327 221.1 348.895 221.216 348.391 221.216C347.887 221.216 347.451 221.1 347.083 220.868C346.715 220.636 346.411 220.32 346.171 219.92C345.939 219.512 345.767 219.04 345.655 218.504C345.543 217.96 345.487 217.376 345.487 216.752C345.487 216.136 345.543 215.556 345.655 215.012C345.767 214.468 345.939 213.996 346.171 213.596C346.411 213.188 346.715 212.868 347.083 212.636C347.451 212.404 347.887 212.288 348.391 212.288ZM348.391 213.26C348.039 213.26 347.751 213.376 347.527 213.608C347.303 213.832 347.127 214.12 346.999 214.472C346.879 214.816 346.795 215.192 346.747 215.6C346.699 216.008 346.675 216.392 346.675 216.752C346.675 217.112 346.699 217.496 346.747 217.904C346.795 218.312 346.879 218.688 346.999 219.032C347.127 219.376 347.303 219.664 347.527 219.896C347.751 220.12 348.039 220.232 348.391 220.232C348.735 220.232 349.015 220.12 349.231 219.896C349.455 219.664 349.631 219.376 349.759 219.032C349.887 218.688 349.975 218.312 350.023 217.904C350.071 217.496 350.095 217.112 350.095 216.752C350.095 216.392 350.071 216.008 350.023 215.6C349.975 215.192 349.887 214.816 349.759 214.472C349.631 214.12 349.455 213.832 349.231 213.608C349.015 213.376 348.735 213.26 348.391 213.26Z" fill="white"/>
<path d="M317.459 269H316.295V261.92L314.687 263.264L314.003 262.46L316.415 260.504H317.459V269ZM326.36 269H320.816V267.884L324.2 264.524C324.456 264.26 324.676 263.984 324.86 263.696C325.044 263.408 325.136 263.084 325.136 262.724C325.136 262.5 325.096 262.3 325.016 262.124C324.936 261.94 324.828 261.784 324.692 261.656C324.556 261.528 324.396 261.432 324.212 261.368C324.028 261.296 323.832 261.26 323.624 261.26C323.192 261.26 322.836 261.4 322.556 261.68C322.276 261.952 322.1 262.304 322.028 262.736L320.888 262.544C320.936 262.224 321.036 261.928 321.188 261.656C321.348 261.376 321.548 261.136 321.788 260.936C322.028 260.728 322.304 260.568 322.616 260.456C322.936 260.344 323.276 260.288 323.636 260.288C323.988 260.288 324.324 260.34 324.644 260.444C324.972 260.548 325.26 260.7 325.508 260.9C325.756 261.1 325.952 261.352 326.096 261.656C326.248 261.96 326.324 262.308 326.324 262.7C326.324 262.972 326.288 263.224 326.216 263.456C326.144 263.688 326.044 263.908 325.916 264.116C325.796 264.324 325.652 264.524 325.484 264.716C325.316 264.9 325.14 265.084 324.956 265.268L322.196 267.956H326.36V269ZM330.857 260.288C331.361 260.288 331.793 260.404 332.153 260.636C332.521 260.868 332.821 261.188 333.053 261.596C333.293 261.996 333.469 262.468 333.581 263.012C333.693 263.556 333.749 264.136 333.749 264.752C333.749 265.376 333.693 265.96 333.581 266.504C333.469 267.04 333.293 267.512 333.053 267.92C332.821 268.32 332.521 268.636 332.153 268.868C331.793 269.1 331.361 269.216 330.857 269.216C330.353 269.216 329.917 269.1 329.549 268.868C329.181 268.636 328.877 268.32 328.637 267.92C328.405 267.512 328.233 267.04 328.121 266.504C328.009 265.96 327.953 265.376 327.953 264.752C327.953 264.136 328.009 263.556 328.121 263.012C328.233 262.468 328.405 261.996 328.637 261.596C328.877 261.188 329.181 260.868 329.549 260.636C329.917 260.404 330.353 260.288 330.857 260.288ZM330.857 261.26C330.505 261.26 330.217 261.376 329.993 261.608C329.769 261.832 329.593 262.12 329.465 262.472C329.345 262.816 329.261 263.192 329.213 263.6C329.165 264.008 329.141 264.392 329.141 264.752C329.141 265.112 329.165 265.496 329.213 265.904C329.261 266.312 329.345 266.688 329.465 267.032C329.593 267.376 329.769 267.664 329.993 267.896C330.217 268.12 330.505 268.232 330.857 268.232C331.201 268.232 331.481 268.12 331.697 267.896C331.921 267.664 332.097 267.376 332.225 267.032C332.353 266.688 332.441 266.312 332.489 265.904C332.537 265.496 332.561 265.112 332.561 264.752C332.561 264.392 332.537 264.008 332.489 263.6C332.441 263.192 332.353 262.816 332.225 262.472C332.097 262.12 331.921 261.832 331.697 261.608C331.481 261.376 331.201 261.26 330.857 261.26ZM335.833 270.596H334.873L335.701 267.596H336.829L335.833 270.596ZM341.207 260.288C341.711 260.288 342.143 260.404 342.503 260.636C342.871 260.868 343.171 261.188 343.403 261.596C343.643 261.996 343.819 262.468 343.931 263.012C344.043 263.556 344.099 264.136 344.099 264.752C344.099 265.376 344.043 265.96 343.931 266.504C343.819 267.04 343.643 267.512 343.403 267.92C343.171 268.32 342.871 268.636 342.503 268.868C342.143 269.1 341.711 269.216 341.207 269.216C340.703 269.216 340.267 269.1 339.899 268.868C339.531 268.636 339.227 268.32 338.987 267.92C338.755 267.512 338.583 267.04 338.471 266.504C338.359 265.96 338.303 265.376 338.303 264.752C338.303 264.136 338.359 263.556 338.471 263.012C338.583 262.468 338.755 261.996 338.987 261.596C339.227 261.188 339.531 260.868 339.899 260.636C340.267 260.404 340.703 260.288 341.207 260.288ZM341.207 261.26C340.855 261.26 340.567 261.376 340.343 261.608C340.119 261.832 339.943 262.12 339.815 262.472C339.695 262.816 339.611 263.192 339.563 263.6C339.515 264.008 339.491 264.392 339.491 264.752C339.491 265.112 339.515 265.496 339.563 265.904C339.611 266.312 339.695 266.688 339.815 267.032C339.943 267.376 340.119 267.664 340.343 267.896C340.567 268.12 340.855 268.232 341.207 268.232C341.551 268.232 341.831 268.12 342.047 267.896C342.271 267.664 342.447 267.376 342.575 267.032C342.703 266.688 342.791 266.312 342.839 265.904C342.887 265.496 342.911 265.112 342.911 264.752C342.911 264.392 342.887 264.008 342.839 263.6C342.791 263.192 342.703 262.816 342.575 262.472C342.447 262.12 342.271 261.832 342.047 261.608C341.831 261.376 341.551 261.26 341.207 261.26ZM348.391 260.288C348.895 260.288 349.327 260.404 349.687 260.636C350.055 260.868 350.355 261.188 350.587 261.596C350.827 261.996 351.003 262.468 351.115 263.012C351.227 263.556 351.283 264.136 351.283 264.752C351.283 265.376 351.227 265.96 351.115 266.504C351.003 267.04 350.827 267.512 350.587 267.92C350.355 268.32 350.055 268.636 349.687 268.868C349.327 269.1 348.895 269.216 348.391 269.216C347.887 269.216 347.451 269.1 347.083 268.868C346.715 268.636 346.411 268.32 346.171 267.92C345.939 267.512 345.767 267.04 345.655 266.504C345.543 265.96 345.487 265.376 345.487 264.752C345.487 264.136 345.543 263.556 345.655 263.012C345.767 262.468 345.939 261.996 346.171 261.596C346.411 261.188 346.715 260.868 347.083 260.636C347.451 260.404 347.887 260.288 348.391 260.288ZM348.391 261.26C348.039 261.26 347.751 261.376 347.527 261.608C347.303 261.832 347.127 262.12 346.999 262.472C346.879 262.816 346.795 263.192 346.747 263.6C346.699 264.008 346.675 264.392 346.675 264.752C346.675 265.112 346.699 265.496 346.747 265.904C346.795 266.312 346.879 266.688 346.999 267.032C347.127 267.376 347.303 267.664 347.527 267.896C347.751 268.12 348.039 268.232 348.391 268.232C348.735 268.232 349.015 268.12 349.231 267.896C349.455 267.664 349.631 267.376 349.759 267.032C349.887 266.688 349.975 266.312 350.023 265.904C350.071 265.496 350.095 265.112 350.095 264.752C350.095 264.392 350.071 264.008 350.023 263.6C349.975 263.192 349.887 262.816 349.759 262.472C349.631 262.12 349.455 261.832 349.231 261.608C349.015 261.376 348.735 261.26 348.391 261.26Z" fill="white"/>
<path d="M317.459 317H316.295V309.92L314.687 311.264L314.003 310.46L316.415 308.504H317.459V317ZM324.644 317H323.48V309.92L321.872 311.264L321.188 310.46L323.6 308.504H324.644V317ZM330.857 308.288C331.361 308.288 331.793 308.404 332.153 308.636C332.521 308.868 332.821 309.188 333.053 309.596C333.293 309.996 333.469 310.468 333.581 311.012C333.693 311.556 333.749 312.136 333.749 312.752C333.749 313.376 333.693 313.96 333.581 314.504C333.469 315.04 333.293 315.512 333.053 315.92C332.821 316.32 332.521 316.636 332.153 316.868C331.793 317.1 331.361 317.216 330.857 317.216C330.353 317.216 329.917 317.1 329.549 316.868C329.181 316.636 328.877 316.32 328.637 315.92C328.405 315.512 328.233 315.04 328.121 314.504C328.009 313.96 327.953 313.376 327.953 312.752C327.953 312.136 328.009 311.556 328.121 311.012C328.233 310.468 328.405 309.996 328.637 309.596C328.877 309.188 329.181 308.868 329.549 308.636C329.917 308.404 330.353 308.288 330.857 308.288ZM330.857 309.26C330.505 309.26 330.217 309.376 329.993 309.608C329.769 309.832 329.593 310.12 329.465 310.472C329.345 310.816 329.261 311.192 329.213 311.6C329.165 312.008 329.141 312.392 329.141 312.752C329.141 313.112 329.165 313.496 329.213 313.904C329.261 314.312 329.345 314.688 329.465 315.032C329.593 315.376 329.769 315.664 329.993 315.896C330.217 316.12 330.505 316.232 330.857 316.232C331.201 316.232 331.481 316.12 331.697 315.896C331.921 315.664 332.097 315.376 332.225 315.032C332.353 314.688 332.441 314.312 332.489 313.904C332.537 313.496 332.561 313.112 332.561 312.752C332.561 312.392 332.537 312.008 332.489 311.6C332.441 311.192 332.353 310.816 332.225 310.472C332.097 310.12 331.921 309.832 331.697 309.608C331.481 309.376 331.201 309.26 330.857 309.26ZM335.833 318.596H334.873L335.701 315.596H336.829L335.833 318.596ZM341.207 308.288C341.711 308.288 342.143 308.404 342.503 308.636C342.871 308.868 343.171 309.188 343.403 309.596C343.643 309.996 343.819 310.468 343.931 311.012C344.043 311.556 344.099 312.136 344.099 312.752C344.099 313.376 344.043 313.96 343.931 314.504C343.819 315.04 343.643 315.512 343.403 315.92C343.171 316.32 342.871 316.636 342.503 316.868C342.143 317.1 341.711 317.216 341.207 317.216C340.703 317.216 340.267 317.1 339.899 316.868C339.531 316.636 339.227 316.32 338.987 315.92C338.755 315.512 338.583 315.04 338.471 314.504C338.359 313.96 338.303 313.376 338.303 312.752C338.303 312.136 338.359 311.556 338.471 311.012C338.583 310.468 338.755 309.996 338.987 309.596C339.227 309.188 339.531 308.868 339.899 308.636C340.267 308.404 340.703 308.288 341.207 308.288ZM341.207 309.26C340.855 309.26 340.567 309.376 340.343 309.608C340.119 309.832 339.943 310.12 339.815 310.472C339.695 310.816 339.611 311.192 339.563 311.6C339.515 312.008 339.491 312.392 339.491 312.752C339.491 313.112 339.515 313.496 339.563 313.904C339.611 314.312 339.695 314.688 339.815 315.032C339.943 315.376 340.119 315.664 340.343 315.896C340.567 316.12 340.855 316.232 341.207 316.232C341.551 316.232 341.831 316.12 342.047 315.896C342.271 315.664 342.447 315.376 342.575 315.032C342.703 314.688 342.791 314.312 342.839 313.904C342.887 313.496 342.911 313.112 342.911 312.752C342.911 312.392 342.887 312.008 342.839 311.6C342.791 311.192 342.703 310.816 342.575 310.472C342.447 310.12 342.271 309.832 342.047 309.608C341.831 309.376 341.551 309.26 341.207 309.26ZM348.391 308.288C348.895 308.288 349.327 308.404 349.687 308.636C350.055 308.868 350.355 309.188 350.587 309.596C350.827 309.996 351.003 310.468 351.115 311.012C351.227 311.556 351.283 312.136 351.283 312.752C351.283 313.376 351.227 313.96 351.115 314.504C351.003 315.04 350.827 315.512 350.587 315.92C350.355 316.32 350.055 316.636 349.687 316.868C349.327 317.1 348.895 317.216 348.391 317.216C347.887 317.216 347.451 317.1 347.083 316.868C346.715 316.636 346.411 316.32 346.171 315.92C345.939 315.512 345.767 315.04 345.655 314.504C345.543 313.96 345.487 313.376 345.487 312.752C345.487 312.136 345.543 311.556 345.655 311.012C345.767 310.468 345.939 309.996 346.171 309.596C346.411 309.188 346.715 308.868 347.083 308.636C347.451 308.404 347.887 308.288 348.391 308.288ZM348.391 309.26C348.039 309.26 347.751 309.376 347.527 309.608C347.303 309.832 347.127 310.12 346.999 310.472C346.879 310.816 346.795 311.192 346.747 311.6C346.699 312.008 346.675 312.392 346.675 312.752C346.675 313.112 346.699 313.496 346.747 313.904C346.795 314.312 346.879 314.688 346.999 315.032C347.127 315.376 347.303 315.664 347.527 315.896C347.751 316.12 348.039 316.232 348.391 316.232C348.735 316.232 349.015 316.12 349.231 315.896C349.455 315.664 349.631 315.376 349.759 315.032C349.887 314.688 349.975 314.312 350.023 313.904C350.071 313.496 350.095 313.112 350.095 312.752C350.095 312.392 350.071 312.008 350.023 311.6C349.975 311.192 349.887 310.816 349.759 310.472C349.631 310.12 349.455 309.832 349.231 309.608C349.015 309.376 348.735 309.26 348.391 309.26Z" fill="white"/>
<path d="M317.459 364H316.295V356.92L314.687 358.264L314.003 357.46L316.415 355.504H317.459V364ZM323.672 355.288C324.176 355.288 324.608 355.404 324.968 355.636C325.336 355.868 325.636 356.188 325.868 356.596C326.108 356.996 326.284 357.468 326.396 358.012C326.508 358.556 326.564 359.136 326.564 359.752C326.564 360.376 326.508 360.96 326.396 361.504C326.284 362.04 326.108 362.512 325.868 362.92C325.636 363.32 325.336 363.636 324.968 363.868C324.608 364.1 324.176 364.216 323.672 364.216C323.168 364.216 322.732 364.1 322.364 363.868C321.996 363.636 321.692 363.32 321.452 362.92C321.22 362.512 321.048 362.04 320.936 361.504C320.824 360.96 320.768 360.376 320.768 359.752C320.768 359.136 320.824 358.556 320.936 358.012C321.048 357.468 321.22 356.996 321.452 356.596C321.692 356.188 321.996 355.868 322.364 355.636C322.732 355.404 323.168 355.288 323.672 355.288ZM323.672 356.26C323.32 356.26 323.032 356.376 322.808 356.608C322.584 356.832 322.408 357.12 322.28 357.472C322.16 357.816 322.076 358.192 322.028 358.6C321.98 359.008 321.956 359.392 321.956 359.752C321.956 360.112 321.98 360.496 322.028 360.904C322.076 361.312 322.16 361.688 322.28 362.032C322.408 362.376 322.584 362.664 322.808 362.896C323.032 363.12 323.32 363.232 323.672 363.232C324.016 363.232 324.296 363.12 324.512 362.896C324.736 362.664 324.912 362.376 325.04 362.032C325.168 361.688 325.256 361.312 325.304 360.904C325.352 360.496 325.376 360.112 325.376 359.752C325.376 359.392 325.352 359.008 325.304 358.6C325.256 358.192 325.168 357.816 325.04 357.472C324.912 357.12 324.736 356.832 324.512 356.608C324.296 356.376 324.016 356.26 323.672 356.26ZM330.857 355.288C331.361 355.288 331.793 355.404 332.153 355.636C332.521 355.868 332.821 356.188 333.053 356.596C333.293 356.996 333.469 357.468 333.581 358.012C333.693 358.556 333.749 359.136 333.749 359.752C333.749 360.376 333.693 360.96 333.581 361.504C333.469 362.04 333.293 362.512 333.053 362.92C332.821 363.32 332.521 363.636 332.153 363.868C331.793 364.1 331.361 364.216 330.857 364.216C330.353 364.216 329.917 364.1 329.549 363.868C329.181 363.636 328.877 363.32 328.637 362.92C328.405 362.512 328.233 362.04 328.121 361.504C328.009 360.96 327.953 360.376 327.953 359.752C327.953 359.136 328.009 358.556 328.121 358.012C328.233 357.468 328.405 356.996 328.637 356.596C328.877 356.188 329.181 355.868 329.549 355.636C329.917 355.404 330.353 355.288 330.857 355.288ZM330.857 356.26C330.505 356.26 330.217 356.376 329.993 356.608C329.769 356.832 329.593 357.12 329.465 357.472C329.345 357.816 329.261 358.192 329.213 358.6C329.165 359.008 329.141 359.392 329.141 359.752C329.141 360.112 329.165 360.496 329.213 360.904C329.261 361.312 329.345 361.688 329.465 362.032C329.593 362.376 329.769 362.664 329.993 362.896C330.217 363.12 330.505 363.232 330.857 363.232C331.201 363.232 331.481 363.12 331.697 362.896C331.921 362.664 332.097 362.376 332.225 362.032C332.353 361.688 332.441 361.312 332.489 360.904C332.537 360.496 332.561 360.112 332.561 359.752C332.561 359.392 332.537 359.008 332.489 358.6C332.441 358.192 332.353 357.816 332.225 357.472C332.097 357.12 331.921 356.832 331.697 356.608C331.481 356.376 331.201 356.26 330.857 356.26ZM335.833 365.596H334.873L335.701 362.596H336.829L335.833 365.596ZM341.207 355.288C341.711 355.288 342.143 355.404 342.503 355.636C342.871 355.868 343.171 356.188 343.403 356.596C343.643 356.996 343.819 357.468 343.931 358.012C344.043 358.556 344.099 359.136 344.099 359.752C344.099 360.376 344.043 360.96 343.931 361.504C343.819 362.04 343.643 362.512 343.403 362.92C343.171 363.32 342.871 363.636 342.503 363.868C342.143 364.1 341.711 364.216 341.207 364.216C340.703 364.216 340.267 364.1 339.899 363.868C339.531 363.636 339.227 363.32 338.987 362.92C338.755 362.512 338.583 362.04 338.471 361.504C338.359 360.96 338.303 360.376 338.303 359.752C338.303 359.136 338.359 358.556 338.471 358.012C338.583 357.468 338.755 356.996 338.987 356.596C339.227 356.188 339.531 355.868 339.899 355.636C340.267 355.404 340.703 355.288 341.207 355.288ZM341.207 356.26C340.855 356.26 340.567 356.376 340.343 356.608C340.119 356.832 339.943 357.12 339.815 357.472C339.695 357.816 339.611 358.192 339.563 358.6C339.515 359.008 339.491 359.392 339.491 359.752C339.491 360.112 339.515 360.496 339.563 360.904C339.611 361.312 339.695 361.688 339.815 362.032C339.943 362.376 340.119 362.664 340.343 362.896C340.567 363.12 340.855 363.232 341.207 363.232C341.551 363.232 341.831 363.12 342.047 362.896C342.271 362.664 342.447 362.376 342.575 362.032C342.703 361.688 342.791 361.312 342.839 360.904C342.887 360.496 342.911 360.112 342.911 359.752C342.911 359.392 342.887 359.008 342.839 358.6C342.791 358.192 342.703 357.816 342.575 357.472C342.447 357.12 342.271 356.832 342.047 356.608C341.831 356.376 341.551 356.26 341.207 356.26ZM348.391 355.288C348.895 355.288 349.327 355.404 349.687 355.636C350.055 355.868 350.355 356.188 350.587 356.596C350.827 356.996 351.003 357.468 351.115 358.012C351.227 358.556 351.283 359.136 351.283 359.752C351.283 360.376 351.227 360.96 351.115 361.504C351.003 362.04 350.827 362.512 350.587 362.92C350.355 363.32 350.055 363.636 349.687 363.868C349.327 364.1 348.895 364.216 348.391 364.216C347.887 364.216 347.451 364.1 347.083 363.868C346.715 363.636 346.411 363.32 346.171 362.92C345.939 362.512 345.767 362.04 345.655 361.504C345.543 360.96 345.487 360.376 345.487 359.752C345.487 359.136 345.543 358.556 345.655 358.012C345.767 357.468 345.939 356.996 346.171 356.596C346.411 356.188 346.715 355.868 347.083 355.636C347.451 355.404 347.887 355.288 348.391 355.288ZM348.391 356.26C348.039 356.26 347.751 356.376 347.527 356.608C347.303 356.832 347.127 357.12 346.999 357.472C346.879 357.816 346.795 358.192 346.747 358.6C346.699 359.008 346.675 359.392 346.675 359.752C346.675 360.112 346.699 360.496 346.747 360.904C346.795 361.312 346.879 361.688 346.999 362.032C347.127 362.376 347.303 362.664 347.527 362.896C347.751 363.12 348.039 363.232 348.391 363.232C348.735 363.232 349.015 363.12 349.231 362.896C349.455 362.664 349.631 362.376 349.759 362.032C349.887 361.688 349.975 361.312 350.023 360.904C350.071 360.496 350.095 360.112 350.095 359.752C350.095 359.392 350.071 359.008 350.023 358.6C349.975 358.192 349.887 357.816 349.759 357.472C349.631 357.12 349.455 356.832 349.231 356.608C349.015 356.376 348.735 356.26 348.391 356.26Z" fill="white"/>
<path d="M324.476 409.568L324.464 409.556C324.344 409.628 324.18 409.684 323.972 409.724C323.876 409.74 323.776 409.756 323.672 409.772C323.576 409.78 323.484 409.784 323.396 409.784C323.02 409.784 322.672 409.72 322.352 409.592C322.032 409.456 321.752 409.272 321.512 409.04C321.272 408.8 321.084 408.516 320.948 408.188C320.812 407.86 320.744 407.504 320.744 407.12C320.744 406.696 320.816 406.312 320.96 405.968C321.112 405.616 321.32 405.316 321.584 405.068C321.848 404.82 322.16 404.628 322.52 404.492C322.88 404.356 323.268 404.288 323.684 404.288C324.1 404.288 324.488 404.36 324.848 404.504C325.208 404.64 325.516 404.832 325.772 405.08C326.036 405.328 326.24 405.624 326.384 405.968C326.536 406.312 326.612 406.684 326.612 407.084C326.612 407.548 326.536 407.968 326.384 408.344C326.232 408.72 326.036 409.104 325.796 409.496L323.576 413H322.196L324.476 409.568ZM325.448 407.072C325.448 406.824 325.404 406.592 325.316 406.376C325.236 406.152 325.116 405.96 324.956 405.8C324.804 405.632 324.62 405.5 324.404 405.404C324.188 405.308 323.948 405.26 323.684 405.26C323.42 405.26 323.18 405.308 322.964 405.404C322.748 405.492 322.56 405.616 322.4 405.776C322.248 405.936 322.128 406.128 322.04 406.352C321.96 406.576 321.92 406.82 321.92 407.084C321.92 407.34 321.96 407.576 322.04 407.792C322.128 408.008 322.248 408.196 322.4 408.356C322.552 408.516 322.736 408.64 322.952 408.728C323.168 408.816 323.408 408.86 323.672 408.86C323.936 408.86 324.176 408.816 324.392 408.728C324.616 408.64 324.804 408.516 324.956 408.356C325.116 408.196 325.236 408.008 325.316 407.792C325.404 407.576 325.448 407.336 325.448 407.072ZM330.857 404.288C331.361 404.288 331.793 404.404 332.153 404.636C332.521 404.868 332.821 405.188 333.053 405.596C333.293 405.996 333.469 406.468 333.581 407.012C333.693 407.556 333.749 408.136 333.749 408.752C333.749 409.376 333.693 409.96 333.581 410.504C333.469 411.04 333.293 411.512 333.053 411.92C332.821 412.32 332.521 412.636 332.153 412.868C331.793 413.1 331.361 413.216 330.857 413.216C330.353 413.216 329.917 413.1 329.549 412.868C329.181 412.636 328.877 412.32 328.637 411.92C328.405 411.512 328.233 411.04 328.121 410.504C328.009 409.96 327.953 409.376 327.953 408.752C327.953 408.136 328.009 407.556 328.121 407.012C328.233 406.468 328.405 405.996 328.637 405.596C328.877 405.188 329.181 404.868 329.549 404.636C329.917 404.404 330.353 404.288 330.857 404.288ZM330.857 405.26C330.505 405.26 330.217 405.376 329.993 405.608C329.769 405.832 329.593 406.12 329.465 406.472C329.345 406.816 329.261 407.192 329.213 407.6C329.165 408.008 329.141 408.392 329.141 408.752C329.141 409.112 329.165 409.496 329.213 409.904C329.261 410.312 329.345 410.688 329.465 411.032C329.593 411.376 329.769 411.664 329.993 411.896C330.217 412.12 330.505 412.232 330.857 412.232C331.201 412.232 331.481 412.12 331.697 411.896C331.921 411.664 332.097 411.376 332.225 411.032C332.353 410.688 332.441 410.312 332.489 409.904C332.537 409.496 332.561 409.112 332.561 408.752C332.561 408.392 332.537 408.008 332.489 407.6C332.441 407.192 332.353 406.816 332.225 406.472C332.097 406.12 331.921 405.832 331.697 405.608C331.481 405.376 331.201 405.26 330.857 405.26ZM335.833 414.596H334.873L335.701 411.596H336.829L335.833 414.596ZM341.207 404.288C341.711 404.288 342.143 404.404 342.503 404.636C342.871 404.868 343.171 405.188 343.403 405.596C343.643 405.996 343.819 406.468 343.931 407.012C344.043 407.556 344.099 408.136 344.099 408.752C344.099 409.376 344.043 409.96 343.931 410.504C343.819 411.04 343.643 411.512 343.403 411.92C343.171 412.32 342.871 412.636 342.503 412.868C342.143 413.1 341.711 413.216 341.207 413.216C340.703 413.216 340.267 413.1 339.899 412.868C339.531 412.636 339.227 412.32 338.987 411.92C338.755 411.512 338.583 411.04 338.471 410.504C338.359 409.96 338.303 409.376 338.303 408.752C338.303 408.136 338.359 407.556 338.471 407.012C338.583 406.468 338.755 405.996 338.987 405.596C339.227 405.188 339.531 404.868 339.899 404.636C340.267 404.404 340.703 404.288 341.207 404.288ZM341.207 405.26C340.855 405.26 340.567 405.376 340.343 405.608C340.119 405.832 339.943 406.12 339.815 406.472C339.695 406.816 339.611 407.192 339.563 407.6C339.515 408.008 339.491 408.392 339.491 408.752C339.491 409.112 339.515 409.496 339.563 409.904C339.611 410.312 339.695 410.688 339.815 411.032C339.943 411.376 340.119 411.664 340.343 411.896C340.567 412.12 340.855 412.232 341.207 412.232C341.551 412.232 341.831 412.12 342.047 411.896C342.271 411.664 342.447 411.376 342.575 411.032C342.703 410.688 342.791 410.312 342.839 409.904C342.887 409.496 342.911 409.112 342.911 408.752C342.911 408.392 342.887 408.008 342.839 407.6C342.791 407.192 342.703 406.816 342.575 406.472C342.447 406.12 342.271 405.832 342.047 405.608C341.831 405.376 341.551 405.26 341.207 405.26ZM348.391 404.288C348.895 404.288 349.327 404.404 349.687 404.636C350.055 404.868 350.355 405.188 350.587 405.596C350.827 405.996 351.003 406.468 351.115 407.012C351.227 407.556 351.283 408.136 351.283 408.752C351.283 409.376 351.227 409.96 351.115 410.504C351.003 411.04 350.827 411.512 350.587 411.92C350.355 412.32 350.055 412.636 349.687 412.868C349.327 413.1 348.895 413.216 348.391 413.216C347.887 413.216 347.451 413.1 347.083 412.868C346.715 412.636 346.411 412.32 346.171 411.92C345.939 411.512 345.767 411.04 345.655 410.504C345.543 409.96 345.487 409.376 345.487 408.752C345.487 408.136 345.543 407.556 345.655 407.012C345.767 406.468 345.939 405.996 346.171 405.596C346.411 405.188 346.715 404.868 347.083 404.636C347.451 404.404 347.887 404.288 348.391 404.288ZM348.391 405.26C348.039 405.26 347.751 405.376 347.527 405.608C347.303 405.832 347.127 406.12 346.999 406.472C346.879 406.816 346.795 407.192 346.747 407.6C346.699 408.008 346.675 408.392 346.675 408.752C346.675 409.112 346.699 409.496 346.747 409.904C346.795 410.312 346.879 410.688 346.999 411.032C347.127 411.376 347.303 411.664 347.527 411.896C347.751 412.12 348.039 412.232 348.391 412.232C348.735 412.232 349.015 412.12 349.231 411.896C349.455 411.664 349.631 411.376 349.759 411.032C349.887 410.688 349.975 410.312 350.023 409.904C350.071 409.496 350.095 409.112 350.095 408.752C350.095 408.392 350.071 408.008 350.023 407.6C349.975 407.192 349.887 406.816 349.759 406.472C349.631 406.12 349.455 405.832 349.231 405.608C349.015 405.376 348.735 405.26 348.391 405.26Z" fill="white"/>
<path d="M2.3761 442.364C2.3761 442.572 2.3001 442.756 2.1481 442.916C1.9961 443.076 1.8041 443.156 1.5721 443.156C1.3401 443.156 1.1441 443.08 0.984104 442.928C0.832104 442.768 0.756104 442.584 0.756104 442.376C0.756104 442.16 0.832104 441.972 0.984104 441.812C1.1441 441.652 1.3401 441.572 1.5721 441.572C1.7961 441.572 1.9841 441.652 2.1361 441.812C2.2961 441.964 2.3761 442.148 2.3761 442.364ZM13.8093 446H12.6453V438.92L11.0373 440.264L10.3533 439.46L12.7653 437.504H13.8093V446ZM20.994 446H19.83V438.92L18.222 440.264L17.538 439.46L19.95 437.504H20.994V446ZM31.1907 442.316C31.1907 441.892 31.0627 441.58 30.8067 441.38C30.5507 441.172 30.2107 441.068 29.7867 441.068C29.4667 441.068 29.1627 441.132 28.8747 441.26C28.5947 441.38 28.3587 441.536 28.1667 441.728L27.5667 441.008C27.8467 440.744 28.1867 440.536 28.5867 440.384C28.9947 440.232 29.4307 440.156 29.8947 440.156C30.3027 440.156 30.6547 440.216 30.9507 440.336C31.2547 440.448 31.5027 440.604 31.6947 440.804C31.8867 441.004 32.0307 441.24 32.1267 441.512C32.2227 441.784 32.2707 442.076 32.2707 442.388V444.872C32.2707 445.064 32.2747 445.268 32.2827 445.484C32.2987 445.692 32.3227 445.864 32.3547 446H31.3347C31.2707 445.728 31.2387 445.456 31.2387 445.184H31.2027C30.9947 445.488 30.7307 445.724 30.4107 445.892C30.0987 446.06 29.7267 446.144 29.2947 446.144C29.0707 446.144 28.8347 446.112 28.5867 446.048C28.3467 445.992 28.1267 445.896 27.9267 445.76C27.7267 445.624 27.5587 445.444 27.4227 445.22C27.2947 444.996 27.2307 444.72 27.2307 444.392C27.2307 443.96 27.3467 443.62 27.5787 443.372C27.8107 443.116 28.1147 442.924 28.4907 442.796C28.8667 442.66 29.2907 442.572 29.7627 442.532C30.2347 442.492 30.7107 442.472 31.1907 442.472V442.316ZM30.9147 443.288C30.6347 443.288 30.3427 443.3 30.0387 443.324C29.7427 443.348 29.4707 443.396 29.2227 443.468C28.9827 443.54 28.7827 443.648 28.6227 443.792C28.4627 443.936 28.3827 444.128 28.3827 444.368C28.3827 444.536 28.4147 444.676 28.4787 444.788C28.5507 444.9 28.6427 444.992 28.7547 445.064C28.8667 445.136 28.9907 445.188 29.1267 445.22C29.2627 445.244 29.4027 445.256 29.5467 445.256C30.0747 445.256 30.4787 445.1 30.7587 444.788C31.0467 444.468 31.1907 444.068 31.1907 443.588V443.288H30.9147ZM35.3066 441.248C35.4506 440.944 35.6786 440.688 35.9906 440.48C36.3106 440.264 36.6866 440.156 37.1186 440.156C37.5026 440.156 37.8466 440.244 38.1506 440.42C38.4626 440.596 38.7066 440.888 38.8826 441.296C39.0746 440.928 39.3426 440.648 39.6866 440.456C40.0306 440.256 40.4066 440.156 40.8146 440.156C41.1826 440.156 41.4986 440.22 41.7626 440.348C42.0266 440.468 42.2466 440.632 42.4226 440.84C42.5986 441.048 42.7266 441.292 42.8066 441.572C42.8946 441.852 42.9386 442.152 42.9386 442.472V446H41.8106V442.844C41.8106 442.612 41.7906 442.392 41.7506 442.184C41.7106 441.976 41.6426 441.792 41.5466 441.632C41.4506 441.472 41.3226 441.344 41.1626 441.248C41.0026 441.152 40.7986 441.104 40.5506 441.104C40.2946 441.104 40.0746 441.16 39.8906 441.272C39.7066 441.376 39.5546 441.516 39.4346 441.692C39.3226 441.86 39.2386 442.052 39.1826 442.268C39.1346 442.484 39.1106 442.704 39.1106 442.928V446H37.9826V442.616C37.9826 442.392 37.9626 442.188 37.9226 442.004C37.8826 441.82 37.8146 441.664 37.7186 441.536C37.6226 441.4 37.4986 441.296 37.3466 441.224C37.1946 441.144 37.0066 441.104 36.7826 441.104C36.3666 441.104 36.0186 441.276 35.7386 441.62C35.4666 441.956 35.3306 442.408 35.3306 442.976V446H34.2026V441.536C34.2026 441.384 34.1986 441.188 34.1906 440.948C34.1826 440.708 34.1706 440.496 34.1546 440.312H35.2226C35.2386 440.456 35.2506 440.62 35.2586 440.804C35.2666 440.98 35.2706 441.128 35.2706 441.248H35.3066ZM52.3913 442.364C52.3913 442.572 52.3153 442.756 52.1633 442.916C52.0113 443.076 51.8193 443.156 51.5873 443.156C51.3553 443.156 51.1593 443.08 50.9993 442.928C50.8473 442.768 50.7713 442.584 50.7713 442.376C50.7713 442.16 50.8473 441.972 50.9993 441.812C51.1593 441.652 51.3553 441.572 51.5873 441.572C51.8113 441.572 51.9993 441.652 52.1513 441.812C52.3113 441.964 52.3913 442.148 52.3913 442.364ZM63.8244 446H62.6604V438.92L61.0524 440.264L60.3684 439.46L62.7804 437.504H63.8244V446ZM72.7252 446H67.1812V444.884L70.5652 441.524C70.8212 441.26 71.0412 440.984 71.2252 440.696C71.4092 440.408 71.5012 440.084 71.5012 439.724C71.5012 439.5 71.4612 439.3 71.3812 439.124C71.3012 438.94 71.1932 438.784 71.0572 438.656C70.9212 438.528 70.7612 438.432 70.5772 438.368C70.3932 438.296 70.1972 438.26 69.9892 438.26C69.5572 438.26 69.2012 438.4 68.9212 438.68C68.6412 438.952 68.4652 439.304 68.3932 439.736L67.2532 439.544C67.3012 439.224 67.4012 438.928 67.5532 438.656C67.7132 438.376 67.9132 438.136 68.1532 437.936C68.3932 437.728 68.6692 437.568 68.9812 437.456C69.3012 437.344 69.6412 437.288 70.0012 437.288C70.3532 437.288 70.6892 437.34 71.0092 437.444C71.3372 437.548 71.6252 437.7 71.8732 437.9C72.1212 438.1 72.3172 438.352 72.4612 438.656C72.6132 438.96 72.6892 439.308 72.6892 439.7C72.6892 439.972 72.6532 440.224 72.5812 440.456C72.5092 440.688 72.4092 440.908 72.2812 441.116C72.1612 441.324 72.0172 441.524 71.8492 441.716C71.6812 441.9 71.5052 442.084 71.3212 442.268L68.5612 444.956H72.7252V446ZM81.2059 442.316C81.2059 441.892 81.0779 441.58 80.8219 441.38C80.5659 441.172 80.2259 441.068 79.8019 441.068C79.4819 441.068 79.1779 441.132 78.8899 441.26C78.6099 441.38 78.3739 441.536 78.1819 441.728L77.5819 441.008C77.8619 440.744 78.2019 440.536 78.6019 440.384C79.0099 440.232 79.4459 440.156 79.9099 440.156C80.3179 440.156 80.6699 440.216 80.9659 440.336C81.2699 440.448 81.5179 440.604 81.7099 440.804C81.9019 441.004 82.0459 441.24 82.1419 441.512C82.2379 441.784 82.2859 442.076 82.2859 442.388V444.872C82.2859 445.064 82.2899 445.268 82.2979 445.484C82.3139 445.692 82.3379 445.864 82.3699 446H81.3499C81.2859 445.728 81.2539 445.456 81.2539 445.184H81.2179C81.0099 445.488 80.7459 445.724 80.4259 445.892C80.1139 446.06 79.7419 446.144 79.3099 446.144C79.0859 446.144 78.8499 446.112 78.6019 446.048C78.3619 445.992 78.1419 445.896 77.9419 445.76C77.7419 445.624 77.5739 445.444 77.4379 445.22C77.3099 444.996 77.2459 444.72 77.2459 444.392C77.2459 443.96 77.3619 443.62 77.5939 443.372C77.8259 443.116 78.1299 442.924 78.5059 442.796C78.8819 442.66 79.3059 442.572 79.7779 442.532C80.2499 442.492 80.7259 442.472 81.2059 442.472V442.316ZM80.9299 443.288C80.6499 443.288 80.3579 443.3 80.0539 443.324C79.7579 443.348 79.4859 443.396 79.2379 443.468C78.9979 443.54 78.7979 443.648 78.6379 443.792C78.4779 443.936 78.3979 444.128 78.3979 444.368C78.3979 444.536 78.4299 444.676 78.4939 444.788C78.5659 444.9 78.6579 444.992 78.7699 445.064C78.8819 445.136 79.0059 445.188 79.1419 445.22C79.2779 445.244 79.4179 445.256 79.5619 445.256C80.0899 445.256 80.4939 445.1 80.7739 444.788C81.0619 444.468 81.2059 444.068 81.2059 443.588V443.288H80.9299ZM85.3218 441.248C85.4658 440.944 85.6938 440.688 86.0058 440.48C86.3258 440.264 86.7018 440.156 87.1338 440.156C87.5178 440.156 87.8618 440.244 88.1658 440.42C88.4778 440.596 88.7218 440.888 88.8978 441.296C89.0898 440.928 89.3578 440.648 89.7018 440.456C90.0458 440.256 90.4218 440.156 90.8298 440.156C91.1978 440.156 91.5138 440.22 91.7778 440.348C92.0418 440.468 92.2618 440.632 92.4378 440.84C92.6138 441.048 92.7418 441.292 92.8218 441.572C92.9098 441.852 92.9538 442.152 92.9538 442.472V446H91.8258V442.844C91.8258 442.612 91.8058 442.392 91.7658 442.184C91.7258 441.976 91.6578 441.792 91.5618 441.632C91.4658 441.472 91.3378 441.344 91.1778 441.248C91.0178 441.152 90.8138 441.104 90.5658 441.104C90.3098 441.104 90.0898 441.16 89.9058 441.272C89.7218 441.376 89.5698 441.516 89.4498 441.692C89.3378 441.86 89.2538 442.052 89.1978 442.268C89.1498 442.484 89.1258 442.704 89.1258 442.928V446H87.9978V442.616C87.9978 442.392 87.9778 442.188 87.9378 442.004C87.8978 441.82 87.8298 441.664 87.7338 441.536C87.6378 441.4 87.5138 441.296 87.3618 441.224C87.2098 441.144 87.0218 441.104 86.7978 441.104C86.3818 441.104 86.0338 441.276 85.7538 441.62C85.4818 441.956 85.3458 442.408 85.3458 442.976V446H84.2178V441.536C84.2178 441.384 84.2138 441.188 84.2058 440.948C84.1978 440.708 84.1858 440.496 84.1698 440.312H85.2378C85.2538 440.456 85.2658 440.62 85.2738 440.804C85.2818 440.98 85.2858 441.128 85.2858 441.248H85.3218ZM102.406 442.364C102.406 442.572 102.33 442.756 102.178 442.916C102.026 443.076 101.834 443.156 101.602 443.156C101.37 443.156 101.174 443.08 101.014 442.928C100.862 442.768 100.786 442.584 100.786 442.376C100.786 442.16 100.862 441.972 101.014 441.812C101.174 441.652 101.37 441.572 101.602 441.572C101.826 441.572 102.014 441.652 102.166 441.812C102.326 441.964 102.406 442.148 102.406 442.364ZM113.839 446H112.675V438.92L111.067 440.264L110.383 439.46L112.795 437.504H113.839V446ZM121.624 448.88H120.496V440.312H121.6V441.2H121.636C121.82 440.896 122.088 440.648 122.44 440.456C122.8 440.256 123.216 440.156 123.688 440.156C124.112 440.156 124.496 440.232 124.84 440.384C125.192 440.536 125.492 440.748 125.74 441.02C125.996 441.292 126.192 441.612 126.328 441.98C126.464 442.34 126.532 442.728 126.532 443.144C126.532 443.56 126.464 443.952 126.328 444.32C126.192 444.688 126 445.008 125.752 445.28C125.504 445.552 125.204 445.768 124.852 445.928C124.5 446.08 124.104 446.156 123.664 446.156C123.256 446.156 122.872 446.068 122.512 445.892C122.152 445.716 121.868 445.468 121.66 445.148H121.624V448.88ZM125.368 443.144C125.368 442.88 125.328 442.624 125.248 442.376C125.168 442.128 125.048 441.908 124.888 441.716C124.728 441.524 124.528 441.372 124.288 441.26C124.056 441.148 123.784 441.092 123.472 441.092C123.184 441.092 122.92 441.148 122.68 441.26C122.448 441.372 122.248 441.524 122.08 441.716C121.912 441.908 121.78 442.128 121.684 442.376C121.596 442.624 121.552 442.884 121.552 443.156C121.552 443.428 121.596 443.688 121.684 443.936C121.78 444.184 121.912 444.404 122.08 444.596C122.248 444.78 122.448 444.928 122.68 445.04C122.92 445.152 123.184 445.208 123.472 445.208C123.784 445.208 124.056 445.152 124.288 445.04C124.528 444.92 124.728 444.764 124.888 444.572C125.048 444.38 125.168 444.16 125.248 443.912C125.328 443.664 125.368 443.408 125.368 443.144ZM129.254 441.248C129.398 440.944 129.626 440.688 129.938 440.48C130.258 440.264 130.634 440.156 131.066 440.156C131.45 440.156 131.794 440.244 132.098 440.42C132.41 440.596 132.654 440.888 132.83 441.296C133.022 440.928 133.29 440.648 133.634 440.456C133.978 440.256 134.354 440.156 134.762 440.156C135.13 440.156 135.446 440.22 135.71 440.348C135.974 440.468 136.194 440.632 136.37 440.84C136.546 441.048 136.674 441.292 136.754 441.572C136.842 441.852 136.886 442.152 136.886 442.472V446H135.758V442.844C135.758 442.612 135.738 442.392 135.698 442.184C135.658 441.976 135.59 441.792 135.494 441.632C135.398 441.472 135.27 441.344 135.11 441.248C134.95 441.152 134.746 441.104 134.498 441.104C134.242 441.104 134.022 441.16 133.838 441.272C133.654 441.376 133.502 441.516 133.382 441.692C133.27 441.86 133.186 442.052 133.13 442.268C133.082 442.484 133.058 442.704 133.058 442.928V446H131.93V442.616C131.93 442.392 131.91 442.188 131.87 442.004C131.83 441.82 131.762 441.664 131.666 441.536C131.57 441.4 131.446 441.296 131.294 441.224C131.142 441.144 130.954 441.104 130.73 441.104C130.314 441.104 129.966 441.276 129.686 441.62C129.414 441.956 129.278 442.408 129.278 442.976V446H128.15V441.536C128.15 441.384 128.146 441.188 128.138 440.948C128.13 440.708 128.118 440.496 128.102 440.312H129.17C129.186 440.456 129.198 440.62 129.206 440.804C129.214 440.98 129.218 441.128 129.218 441.248H129.254ZM146.338 442.364C146.338 442.572 146.262 442.756 146.11 442.916C145.958 443.076 145.766 443.156 145.534 443.156C145.302 443.156 145.106 443.08 144.946 442.928C144.794 442.768 144.718 442.584 144.718 442.376C144.718 442.16 144.794 441.972 144.946 441.812C145.106 441.652 145.302 441.572 145.534 441.572C145.758 441.572 145.946 441.652 146.098 441.812C146.258 441.964 146.338 442.148 146.338 442.364ZM159.487 446H153.943V444.884L157.327 441.524C157.583 441.26 157.803 440.984 157.987 440.696C158.171 440.408 158.263 440.084 158.263 439.724C158.263 439.5 158.223 439.3 158.143 439.124C158.063 438.94 157.955 438.784 157.819 438.656C157.683 438.528 157.523 438.432 157.339 438.368C157.155 438.296 156.959 438.26 156.751 438.26C156.319 438.26 155.963 438.4 155.683 438.68C155.403 438.952 155.227 439.304 155.155 439.736L154.015 439.544C154.063 439.224 154.163 438.928 154.315 438.656C154.475 438.376 154.675 438.136 154.915 437.936C155.155 437.728 155.431 437.568 155.743 437.456C156.063 437.344 156.403 437.288 156.763 437.288C157.115 437.288 157.451 437.34 157.771 437.444C158.099 437.548 158.387 437.7 158.635 437.9C158.883 438.1 159.079 438.352 159.223 438.656C159.375 438.96 159.451 439.308 159.451 439.7C159.451 439.972 159.415 440.224 159.343 440.456C159.271 440.688 159.171 440.908 159.043 441.116C158.923 441.324 158.779 441.524 158.611 441.716C158.443 441.9 158.267 442.084 158.083 442.268L155.323 444.956H159.487V446ZM165.556 448.88H164.428V440.312H165.532V441.2H165.568C165.752 440.896 166.02 440.648 166.372 440.456C166.732 440.256 167.148 440.156 167.62 440.156C168.044 440.156 168.428 440.232 168.772 440.384C169.124 440.536 169.424 440.748 169.672 441.02C169.928 441.292 170.124 441.612 170.26 441.98C170.396 442.34 170.464 442.728 170.464 443.144C170.464 443.56 170.396 443.952 170.26 444.32C170.124 444.688 169.932 445.008 169.684 445.28C169.436 445.552 169.136 445.768 168.784 445.928C168.432 446.08 168.036 446.156 167.596 446.156C167.188 446.156 166.804 446.068 166.444 445.892C166.084 445.716 165.8 445.468 165.592 445.148H165.556V448.88ZM169.3 443.144C169.3 442.88 169.26 442.624 169.18 442.376C169.1 442.128 168.98 441.908 168.82 441.716C168.66 441.524 168.46 441.372 168.22 441.26C167.988 441.148 167.716 441.092 167.404 441.092C167.116 441.092 166.852 441.148 166.612 441.26C166.38 441.372 166.18 441.524 166.012 441.716C165.844 441.908 165.712 442.128 165.616 442.376C165.528 442.624 165.484 442.884 165.484 443.156C165.484 443.428 165.528 443.688 165.616 443.936C165.712 444.184 165.844 444.404 166.012 444.596C166.18 444.78 166.38 444.928 166.612 445.04C166.852 445.152 167.116 445.208 167.404 445.208C167.716 445.208 167.988 445.152 168.22 445.04C168.46 444.92 168.66 444.764 168.82 444.572C168.98 444.38 169.1 444.16 169.18 443.912C169.26 443.664 169.3 443.408 169.3 443.144ZM173.186 441.248C173.33 440.944 173.558 440.688 173.87 440.48C174.19 440.264 174.566 440.156 174.998 440.156C175.382 440.156 175.726 440.244 176.03 440.42C176.342 440.596 176.586 440.888 176.762 441.296C176.954 440.928 177.222 440.648 177.566 440.456C177.91 440.256 178.286 440.156 178.694 440.156C179.062 440.156 179.378 440.22 179.642 440.348C179.906 440.468 180.126 440.632 180.302 440.84C180.478 441.048 180.606 441.292 180.686 441.572C180.774 441.852 180.818 442.152 180.818 442.472V446H179.69V442.844C179.69 442.612 179.67 442.392 179.63 442.184C179.59 441.976 179.522 441.792 179.426 441.632C179.33 441.472 179.202 441.344 179.042 441.248C178.882 441.152 178.678 441.104 178.43 441.104C178.174 441.104 177.954 441.16 177.77 441.272C177.586 441.376 177.434 441.516 177.314 441.692C177.202 441.86 177.118 442.052 177.062 442.268C177.014 442.484 176.99 442.704 176.99 442.928V446H175.862V442.616C175.862 442.392 175.842 442.188 175.802 442.004C175.762 441.82 175.694 441.664 175.598 441.536C175.502 441.4 175.378 441.296 175.226 441.224C175.074 441.144 174.886 441.104 174.662 441.104C174.246 441.104 173.898 441.276 173.618 441.62C173.346 441.956 173.21 442.408 173.21 442.976V446H172.082V441.536C172.082 441.384 172.078 441.188 172.07 440.948C172.062 440.708 172.05 440.496 172.034 440.312H173.102C173.118 440.456 173.13 440.62 173.138 440.804C173.146 440.98 173.15 441.128 173.15 441.248H173.186ZM190.27 442.364C190.27 442.572 190.194 442.756 190.042 442.916C189.89 443.076 189.698 443.156 189.466 443.156C189.234 443.156 189.038 443.08 188.878 442.928C188.726 442.768 188.65 442.584 188.65 442.376C188.65 442.16 188.726 441.972 188.878 441.812C189.038 441.652 189.234 441.572 189.466 441.572C189.69 441.572 189.878 441.652 190.03 441.812C190.19 441.964 190.27 442.148 190.27 442.364ZM199.712 441.08H200.084C200.324 441.08 200.556 441.06 200.78 441.02C201.012 440.972 201.216 440.896 201.392 440.792C201.568 440.68 201.708 440.532 201.812 440.348C201.924 440.164 201.98 439.936 201.98 439.664C201.98 439.448 201.94 439.256 201.86 439.088C201.78 438.912 201.668 438.764 201.524 438.644C201.388 438.524 201.228 438.432 201.044 438.368C200.868 438.296 200.68 438.26 200.48 438.26C200.12 438.26 199.812 438.352 199.556 438.536C199.308 438.72 199.12 438.976 198.992 439.304L197.936 438.932C198.144 438.42 198.476 438.02 198.932 437.732C199.396 437.436 199.928 437.288 200.528 437.288C200.88 437.288 201.212 437.34 201.524 437.444C201.844 437.54 202.124 437.684 202.364 437.876C202.604 438.068 202.792 438.308 202.928 438.596C203.072 438.884 203.144 439.216 203.144 439.592C203.144 439.832 203.104 440.056 203.024 440.264C202.952 440.472 202.848 440.66 202.712 440.828C202.584 440.996 202.428 441.14 202.244 441.26C202.06 441.38 201.86 441.468 201.644 441.524V441.548C201.892 441.596 202.12 441.68 202.328 441.8C202.544 441.92 202.728 442.072 202.88 442.256C203.032 442.432 203.152 442.636 203.24 442.868C203.328 443.1 203.372 443.352 203.372 443.624C203.372 444.048 203.292 444.424 203.132 444.752C202.972 445.072 202.76 445.34 202.496 445.556C202.232 445.772 201.928 445.936 201.584 446.048C201.24 446.16 200.888 446.216 200.528 446.216C199.856 446.216 199.264 446.064 198.752 445.76C198.24 445.456 197.868 444.984 197.636 444.344L198.716 443.984C198.844 444.352 199.06 444.652 199.364 444.884C199.676 445.116 200.056 445.232 200.504 445.232C200.72 445.232 200.928 445.2 201.128 445.136C201.336 445.064 201.52 444.96 201.68 444.824C201.84 444.688 201.968 444.52 202.064 444.32C202.16 444.12 202.208 443.884 202.208 443.612C202.208 443.316 202.144 443.068 202.016 442.868C201.888 442.668 201.72 442.508 201.512 442.388C201.312 442.26 201.084 442.172 200.828 442.124C200.572 442.068 200.32 442.04 200.072 442.04H199.712V441.08ZM206.44 448.88H205.312V440.312H206.416V441.2H206.452C206.636 440.896 206.904 440.648 207.256 440.456C207.616 440.256 208.032 440.156 208.504 440.156C208.928 440.156 209.312 440.232 209.656 440.384C210.008 440.536 210.308 440.748 210.556 441.02C210.812 441.292 211.008 441.612 211.144 441.98C211.28 442.34 211.348 442.728 211.348 443.144C211.348 443.56 211.28 443.952 211.144 444.32C211.008 444.688 210.816 445.008 210.568 445.28C210.32 445.552 210.02 445.768 209.668 445.928C209.316 446.08 208.92 446.156 208.48 446.156C208.072 446.156 207.688 446.068 207.328 445.892C206.968 445.716 206.684 445.468 206.476 445.148H206.44V448.88ZM210.184 443.144C210.184 442.88 210.144 442.624 210.064 442.376C209.984 442.128 209.864 441.908 209.704 441.716C209.544 441.524 209.344 441.372 209.104 441.26C208.872 441.148 208.6 441.092 208.288 441.092C208 441.092 207.736 441.148 207.496 441.26C207.264 441.372 207.064 441.524 206.896 441.716C206.728 441.908 206.596 442.128 206.5 442.376C206.412 442.624 206.368 442.884 206.368 443.156C206.368 443.428 206.412 443.688 206.5 443.936C206.596 444.184 206.728 444.404 206.896 444.596C207.064 444.78 207.264 444.928 207.496 445.04C207.736 445.152 208 445.208 208.288 445.208C208.6 445.208 208.872 445.152 209.104 445.04C209.344 444.92 209.544 444.764 209.704 444.572C209.864 444.38 209.984 444.16 210.064 443.912C210.144 443.664 210.184 443.408 210.184 443.144ZM214.07 441.248C214.214 440.944 214.442 440.688 214.754 440.48C215.074 440.264 215.45 440.156 215.882 440.156C216.266 440.156 216.61 440.244 216.914 440.42C217.226 440.596 217.47 440.888 217.646 441.296C217.838 440.928 218.106 440.648 218.45 440.456C218.794 440.256 219.17 440.156 219.578 440.156C219.946 440.156 220.262 440.22 220.526 440.348C220.79 440.468 221.01 440.632 221.186 440.84C221.362 441.048 221.49 441.292 221.57 441.572C221.658 441.852 221.702 442.152 221.702 442.472V446H220.574V442.844C220.574 442.612 220.554 442.392 220.514 442.184C220.474 441.976 220.406 441.792 220.31 441.632C220.214 441.472 220.086 441.344 219.926 441.248C219.766 441.152 219.562 441.104 219.314 441.104C219.058 441.104 218.838 441.16 218.654 441.272C218.47 441.376 218.318 441.516 218.198 441.692C218.086 441.86 218.002 442.052 217.946 442.268C217.898 442.484 217.874 442.704 217.874 442.928V446H216.746V442.616C216.746 442.392 216.726 442.188 216.686 442.004C216.646 441.82 216.578 441.664 216.482 441.536C216.386 441.4 216.262 441.296 216.11 441.224C215.958 441.144 215.77 441.104 215.546 441.104C215.13 441.104 214.782 441.276 214.502 441.62C214.23 441.956 214.094 442.408 214.094 442.976V446H212.966V441.536C212.966 441.384 212.962 441.188 212.954 440.948C212.946 440.708 212.934 440.496 212.918 440.312H213.986C214.002 440.456 214.014 440.62 214.022 440.804C214.03 440.98 214.034 441.128 214.034 441.248H214.07ZM231.154 442.364C231.154 442.572 231.078 442.756 230.926 442.916C230.774 443.076 230.582 443.156 230.35 443.156C230.118 443.156 229.922 443.08 229.762 442.928C229.61 442.768 229.534 442.584 229.534 442.376C229.534 442.16 229.61 441.972 229.762 441.812C229.922 441.652 230.118 441.572 230.35 441.572C230.574 441.572 230.762 441.652 230.914 441.812C231.074 441.964 231.154 442.148 231.154 442.364Z" fill="white"/>
<path d="M11.8269 484.672H15.7149C16.4402 484.672 17.1655 484.779 17.8909 484.992C18.6162 485.205 19.2722 485.541 19.8589 486C20.4455 486.459 20.9202 487.045 21.2829 487.76C21.6455 488.475 21.8269 489.333 21.8269 490.336C21.8269 491.307 21.6455 492.149 21.2829 492.864C20.9202 493.568 20.4455 494.155 19.8589 494.624C19.2722 495.083 18.6162 495.429 17.8909 495.664C17.1655 495.888 16.4402 496 15.7149 496H11.8269V484.672ZM13.4109 494.608H15.3949C16.0775 494.608 16.7069 494.512 17.2829 494.32C17.8695 494.128 18.3709 493.851 18.7869 493.488C19.2135 493.125 19.5442 492.677 19.7789 492.144C20.0135 491.611 20.1309 491.008 20.1309 490.336C20.1309 489.632 20.0135 489.013 19.7789 488.48C19.5442 487.947 19.2135 487.504 18.7869 487.152C18.3709 486.789 17.8695 486.517 17.2829 486.336C16.7069 486.144 16.0775 486.048 15.3949 486.048H13.4109V494.608ZM28.7028 491.088C28.7028 490.523 28.5321 490.107 28.1908 489.84C27.8494 489.563 27.3961 489.424 26.8308 489.424C26.4041 489.424 25.9988 489.509 25.6148 489.68C25.2414 489.84 24.9268 490.048 24.6708 490.304L23.8708 489.344C24.2441 488.992 24.6974 488.715 25.2308 488.512C25.7748 488.309 26.3561 488.208 26.9748 488.208C27.5188 488.208 27.9881 488.288 28.3828 488.448C28.7881 488.597 29.1188 488.805 29.3748 489.072C29.6308 489.339 29.8228 489.653 29.9508 490.016C30.0788 490.379 30.1428 490.768 30.1428 491.184V494.496C30.1428 494.752 30.1481 495.024 30.1588 495.312C30.1801 495.589 30.2121 495.819 30.2548 496H28.8948C28.8094 495.637 28.7668 495.275 28.7668 494.912H28.7188C28.4414 495.317 28.0894 495.632 27.6628 495.856C27.2468 496.08 26.7508 496.192 26.1748 496.192C25.8761 496.192 25.5614 496.149 25.2308 496.064C24.9108 495.989 24.6174 495.861 24.3508 495.68C24.0841 495.499 23.8601 495.259 23.6788 494.96C23.5081 494.661 23.4228 494.293 23.4228 493.856C23.4228 493.28 23.5774 492.827 23.8868 492.496C24.1961 492.155 24.6014 491.899 25.1028 491.728C25.6041 491.547 26.1694 491.429 26.7988 491.376C27.4281 491.323 28.0628 491.296 28.7028 491.296V491.088ZM28.3348 492.384C27.9614 492.384 27.5721 492.4 27.1668 492.432C26.7721 492.464 26.4094 492.528 26.0788 492.624C25.7588 492.72 25.4921 492.864 25.2788 493.056C25.0654 493.248 24.9588 493.504 24.9588 493.824C24.9588 494.048 25.0014 494.235 25.0868 494.384C25.1828 494.533 25.3054 494.656 25.4548 494.752C25.6041 494.848 25.7694 494.917 25.9508 494.96C26.1321 494.992 26.3188 495.008 26.5108 495.008C27.2148 495.008 27.7534 494.8 28.1268 494.384C28.5108 493.957 28.7028 493.424 28.7028 492.784V492.384H28.3348ZM35.5986 494.368H35.6306L37.7266 488.416H39.3266L35.6466 497.792C35.5186 498.112 35.38 498.395 35.2306 498.64C35.0813 498.896 34.9053 499.109 34.7026 499.28C34.5 499.461 34.26 499.6 33.9826 499.696C33.716 499.792 33.396 499.84 33.0226 499.84C32.8626 499.84 32.6973 499.829 32.5266 499.808C32.3666 499.797 32.2013 499.771 32.0306 499.728L32.1746 498.4C32.4306 498.485 32.6813 498.528 32.9266 498.528C33.3213 498.528 33.6146 498.416 33.8066 498.192C33.9986 497.979 34.1746 497.669 34.3346 497.264L34.8146 496L31.5666 488.416H33.2466L35.5986 494.368Z" fill="white"/>
<path d="M70.7322 493.696H70.7642L73.4202 484.672H75.1642L77.8042 493.696H77.8362L80.3322 484.672H82.0122L78.6842 496H77.0362L74.2842 486.896H74.2522L71.5002 496H69.8522L66.5242 484.672H68.2362L70.7322 493.696ZM88.5106 491.536C88.4999 491.237 88.4466 490.96 88.3506 490.704C88.2652 490.437 88.1319 490.208 87.9506 490.016C87.7799 489.824 87.5612 489.675 87.2946 489.568C87.0386 489.451 86.7346 489.392 86.3826 489.392C86.0626 489.392 85.7586 489.451 85.4706 489.568C85.1932 489.675 84.9479 489.824 84.7346 490.016C84.5319 490.208 84.3612 490.437 84.2226 490.704C84.0946 490.96 84.0199 491.237 83.9986 491.536H88.5106ZM90.0306 492.144C90.0306 492.229 90.0306 492.315 90.0306 492.4C90.0306 492.485 90.0252 492.571 90.0146 492.656H83.9986C84.0092 492.976 84.0786 493.28 84.2066 493.568C84.3452 493.845 84.5266 494.091 84.7506 494.304C84.9746 494.507 85.2306 494.667 85.5186 494.784C85.8172 494.901 86.1319 494.96 86.4626 494.96C86.9746 494.96 87.4172 494.848 87.7906 494.624C88.1639 494.4 88.4572 494.128 88.6706 493.808L89.7266 494.656C89.3212 495.189 88.8412 495.584 88.2866 495.84C87.7426 496.085 87.1346 496.208 86.4626 496.208C85.8866 496.208 85.3532 496.112 84.8626 495.92C84.3719 495.728 83.9506 495.461 83.5986 495.12C83.2466 494.768 82.9692 494.347 82.7666 493.856C82.5639 493.365 82.4626 492.821 82.4626 492.224C82.4626 491.637 82.5586 491.099 82.7506 490.608C82.9532 490.107 83.2306 489.68 83.5826 489.328C83.9346 488.976 84.3506 488.704 84.8306 488.512C85.3106 488.309 85.8279 488.208 86.3826 488.208C86.9372 488.208 87.4386 488.299 87.8866 488.48C88.3452 488.661 88.7292 488.923 89.0386 489.264C89.3586 489.605 89.6039 490.021 89.7746 490.512C89.9452 490.992 90.0306 491.536 90.0306 492.144ZM97.7464 491.536C97.7358 491.237 97.6824 490.96 97.5864 490.704C97.5011 490.437 97.3678 490.208 97.1864 490.016C97.0158 489.824 96.7971 489.675 96.5304 489.568C96.2744 489.451 95.9704 489.392 95.6184 489.392C95.2984 489.392 94.9944 489.451 94.7064 489.568C94.4291 489.675 94.1838 489.824 93.9704 490.016C93.7678 490.208 93.5971 490.437 93.4584 490.704C93.3304 490.96 93.2558 491.237 93.2344 491.536H97.7464ZM99.2664 492.144C99.2664 492.229 99.2664 492.315 99.2664 492.4C99.2664 492.485 99.2611 492.571 99.2504 492.656H93.2344C93.2451 492.976 93.3144 493.28 93.4424 493.568C93.5811 493.845 93.7624 494.091 93.9864 494.304C94.2104 494.507 94.4664 494.667 94.7544 494.784C95.0531 494.901 95.3678 494.96 95.6984 494.96C96.2104 494.96 96.6531 494.848 97.0264 494.624C97.3998 494.4 97.6931 494.128 97.9064 493.808L98.9624 494.656C98.5571 495.189 98.0771 495.584 97.5224 495.84C96.9784 496.085 96.3704 496.208 95.6984 496.208C95.1224 496.208 94.5891 496.112 94.0984 495.92C93.6078 495.728 93.1864 495.461 92.8344 495.12C92.4824 494.768 92.2051 494.347 92.0024 493.856C91.7998 493.365 91.6984 492.821 91.6984 492.224C91.6984 491.637 91.7944 491.099 91.9864 490.608C92.1891 490.107 92.4664 489.68 92.8184 489.328C93.1704 488.976 93.5864 488.704 94.0664 488.512C94.5464 488.309 95.0638 488.208 95.6184 488.208C96.1731 488.208 96.6744 488.299 97.1224 488.48C97.5811 488.661 97.9651 488.923 98.2744 489.264C98.5944 489.605 98.8398 490.021 99.0104 490.512C99.1811 490.992 99.2664 491.536 99.2664 492.144ZM102.966 491.712H103.014L106.198 488.416H108.214L104.662 491.856L108.518 496H106.438L103.014 492.064H102.966V496H101.462V483.904H102.966V491.712Z" fill="#43464D"/>
<path d="M142.502 493.376H142.534L145.878 484.672H148.342V496H146.758V486.528H146.726L142.966 496H141.958L138.214 486.528H138.182V496H136.646V484.672H139.11L142.502 493.376ZM158.763 492.192C158.763 492.779 158.656 493.317 158.443 493.808C158.24 494.299 157.952 494.725 157.579 495.088C157.216 495.44 156.784 495.717 156.283 495.92C155.781 496.112 155.243 496.208 154.667 496.208C154.091 496.208 153.552 496.112 153.051 495.92C152.549 495.717 152.117 495.44 151.755 495.088C151.392 494.725 151.104 494.299 150.891 493.808C150.688 493.317 150.587 492.779 150.587 492.192C150.587 491.605 150.688 491.072 150.891 490.592C151.104 490.101 151.392 489.68 151.755 489.328C152.117 488.976 152.549 488.704 153.051 488.512C153.552 488.309 154.091 488.208 154.667 488.208C155.243 488.208 155.781 488.309 156.283 488.512C156.784 488.704 157.216 488.976 157.579 489.328C157.952 489.68 158.24 490.101 158.443 490.592C158.656 491.072 158.763 491.605 158.763 492.192ZM157.195 492.192C157.195 491.829 157.136 491.483 157.019 491.152C156.912 490.821 156.752 490.533 156.539 490.288C156.325 490.032 156.059 489.829 155.739 489.68C155.429 489.531 155.072 489.456 154.667 489.456C154.261 489.456 153.899 489.531 153.579 489.68C153.269 489.829 153.008 490.032 152.795 490.288C152.581 490.533 152.416 490.821 152.299 491.152C152.192 491.483 152.139 491.829 152.139 492.192C152.139 492.555 152.192 492.901 152.299 493.232C152.416 493.563 152.581 493.856 152.795 494.112C153.008 494.368 153.269 494.571 153.579 494.72C153.899 494.869 154.261 494.944 154.667 494.944C155.072 494.944 155.429 494.869 155.739 494.72C156.059 494.571 156.325 494.368 156.539 494.112C156.752 493.856 156.912 493.563 157.019 493.232C157.136 492.901 157.195 492.555 157.195 492.192ZM162.272 488.416C162.294 488.608 162.31 488.827 162.32 489.072C162.331 489.307 162.336 489.504 162.336 489.664H162.384C162.48 489.461 162.608 489.275 162.768 489.104C162.939 488.923 163.131 488.768 163.344 488.64C163.558 488.501 163.792 488.395 164.048 488.32C164.304 488.245 164.571 488.208 164.848 488.208C165.339 488.208 165.76 488.293 166.112 488.464C166.464 488.624 166.758 488.843 166.992 489.12C167.227 489.397 167.398 489.723 167.504 490.096C167.622 490.469 167.68 490.869 167.68 491.296V496H166.176V491.792C166.176 491.483 166.15 491.189 166.096 490.912C166.054 490.635 165.968 490.389 165.84 490.176C165.712 489.963 165.536 489.792 165.312 489.664C165.088 489.536 164.8 489.472 164.448 489.472C163.851 489.472 163.36 489.701 162.976 490.16C162.603 490.608 162.416 491.211 162.416 491.968V496H160.912V490.048C160.912 489.845 160.907 489.584 160.896 489.264C160.886 488.944 160.87 488.661 160.848 488.416H162.272ZM174.001 489.648H171.985V493.6C171.985 494.059 172.07 494.389 172.241 494.592C172.412 494.784 172.684 494.88 173.057 494.88C173.196 494.88 173.345 494.864 173.505 494.832C173.665 494.8 173.809 494.752 173.937 494.688L173.985 495.92C173.804 495.984 173.601 496.032 173.377 496.064C173.164 496.107 172.94 496.128 172.705 496.128C171.99 496.128 171.441 495.931 171.057 495.536C170.684 495.141 170.497 494.549 170.497 493.76V489.648H169.041V488.416H170.497V486.24H171.985V488.416H174.001V489.648ZM177.187 489.568C177.368 489.195 177.677 488.875 178.115 488.608C178.552 488.341 179.043 488.208 179.587 488.208C180.077 488.208 180.499 488.293 180.851 488.464C181.203 488.624 181.496 488.843 181.731 489.12C181.965 489.397 182.136 489.723 182.243 490.096C182.36 490.469 182.419 490.869 182.419 491.296V496H180.915V491.808C180.915 491.499 180.888 491.205 180.835 490.928C180.792 490.651 180.707 490.405 180.579 490.192C180.451 489.979 180.275 489.808 180.051 489.68C179.837 489.552 179.555 489.488 179.203 489.488C178.605 489.488 178.115 489.717 177.731 490.176C177.347 490.624 177.155 491.227 177.155 491.984V496H175.651V483.904H177.155V489.568H177.187Z" fill="#43464D"/>
<path d="M216.141 496H214.541V491.104L210.301 484.672H212.253L215.389 489.792L218.541 484.672H220.381L216.141 491.104V496ZM225.761 491.536C225.75 491.237 225.697 490.96 225.601 490.704C225.515 490.437 225.382 490.208 225.201 490.016C225.03 489.824 224.811 489.675 224.545 489.568C224.289 489.451 223.985 489.392 223.633 489.392C223.313 489.392 223.009 489.451 222.721 489.568C222.443 489.675 222.198 489.824 221.985 490.016C221.782 490.208 221.611 490.437 221.473 490.704C221.345 490.96 221.27 491.237 221.249 491.536H225.761ZM227.281 492.144C227.281 492.229 227.281 492.315 227.281 492.4C227.281 492.485 227.275 492.571 227.265 492.656H221.249C221.259 492.976 221.329 493.28 221.457 493.568C221.595 493.845 221.777 494.091 222.001 494.304C222.225 494.507 222.481 494.667 222.769 494.784C223.067 494.901 223.382 494.96 223.713 494.96C224.225 494.96 224.667 494.848 225.041 494.624C225.414 494.4 225.707 494.128 225.921 493.808L226.977 494.656C226.571 495.189 226.091 495.584 225.537 495.84C224.993 496.085 224.385 496.208 223.713 496.208C223.137 496.208 222.603 496.112 222.113 495.92C221.622 495.728 221.201 495.461 220.849 495.12C220.497 494.768 220.219 494.347 220.017 493.856C219.814 493.365 219.713 492.821 219.713 492.224C219.713 491.637 219.809 491.099 220.001 490.608C220.203 490.107 220.481 489.68 220.833 489.328C221.185 488.976 221.601 488.704 222.081 488.512C222.561 488.309 223.078 488.208 223.633 488.208C224.187 488.208 224.689 488.299 225.137 488.48C225.595 488.661 225.979 488.923 226.289 489.264C226.609 489.605 226.854 490.021 227.025 490.512C227.195 490.992 227.281 491.536 227.281 492.144ZM234.071 491.088C234.071 490.523 233.9 490.107 233.559 489.84C233.217 489.563 232.764 489.424 232.199 489.424C231.772 489.424 231.367 489.509 230.983 489.68C230.609 489.84 230.295 490.048 230.039 490.304L229.239 489.344C229.612 488.992 230.065 488.715 230.599 488.512C231.143 488.309 231.724 488.208 232.343 488.208C232.887 488.208 233.356 488.288 233.751 488.448C234.156 488.597 234.487 488.805 234.743 489.072C234.999 489.339 235.191 489.653 235.319 490.016C235.447 490.379 235.511 490.768 235.511 491.184V494.496C235.511 494.752 235.516 495.024 235.527 495.312C235.548 495.589 235.58 495.819 235.623 496H234.263C234.177 495.637 234.135 495.275 234.135 494.912H234.087C233.809 495.317 233.457 495.632 233.031 495.856C232.615 496.08 232.119 496.192 231.543 496.192C231.244 496.192 230.929 496.149 230.599 496.064C230.279 495.989 229.985 495.861 229.719 495.68C229.452 495.499 229.228 495.259 229.047 494.96C228.876 494.661 228.791 494.293 228.791 493.856C228.791 493.28 228.945 492.827 229.255 492.496C229.564 492.155 229.969 491.899 230.471 491.728C230.972 491.547 231.537 491.429 232.167 491.376C232.796 491.323 233.431 491.296 234.071 491.296V491.088ZM233.703 492.384C233.329 492.384 232.94 492.4 232.535 492.432C232.14 492.464 231.777 492.528 231.447 492.624C231.127 492.72 230.86 492.864 230.647 493.056C230.433 493.248 230.327 493.504 230.327 493.824C230.327 494.048 230.369 494.235 230.455 494.384C230.551 494.533 230.673 494.656 230.823 494.752C230.972 494.848 231.137 494.917 231.319 494.96C231.5 494.992 231.687 495.008 231.879 495.008C232.583 495.008 233.121 494.8 233.495 494.384C233.879 493.957 234.071 493.424 234.071 492.784V492.384H233.703ZM238.087 490.048C238.087 489.845 238.081 489.584 238.071 489.264C238.06 488.944 238.044 488.661 238.023 488.416H239.447C239.468 488.608 239.484 488.832 239.495 489.088C239.505 489.333 239.511 489.536 239.511 489.696H239.559C239.772 489.248 240.081 488.891 240.487 488.624C240.903 488.347 241.367 488.208 241.879 488.208C242.113 488.208 242.311 488.229 242.471 488.272L242.407 489.664C242.193 489.611 241.964 489.584 241.719 489.584C241.356 489.584 241.041 489.653 240.775 489.792C240.508 489.92 240.284 490.096 240.103 490.32C239.932 490.544 239.804 490.805 239.719 491.104C239.633 491.392 239.591 491.696 239.591 492.016V496H238.087V490.048Z" fill="#43464D"/>
<path d="M270.9 496H269.14L274.052 484.672H275.492L280.356 496H278.564L277.412 493.216H272.036L270.9 496ZM272.596 491.824H276.836L274.724 486.512L272.596 491.824ZM283.331 496H281.827V483.904H283.331V496ZM287.552 496H286.048V483.904H287.552V496Z" fill="#43464D"/>
<path d="M321 479C321 476.791 322.791 475 325 475H349C351.209 475 353 476.791 353 479V503C353 505.209 351.209 507 349 507H325C322.791 507 321 505.209 321 503V479Z" fill="#1E1F26"/>
<path d="M329 499L333.267 491.828L335.4 495.69L338.6 488.517L341.267 494.586L345 483" stroke="white" stroke-linecap="round" stroke-linejoin="round"/>
</svg>