<svg width="80" height="80" viewBox="0 0 80 80" fill="none" xmlns="http://www.w3.org/2000/svg">
<path d="M0 40C0 17.9086 17.9086 0 40 0C62.0914 0 80 17.9086 80 40C80 62.0914 62.0914 80 40 80C17.9086 80 0 62.0914 0 40ZM66.6667 40C66.6667 25.2724 54.7276 13.3333 40 13.3333C25.2724 13.3333 13.3333 25.2724 13.3333 40C13.3333 54.7276 25.2724 66.6667 40 66.6667C54.7276 66.6667 66.6667 54.7276 66.6667 40Z" fill="#232323"/>
<path d="M40 73.3333C40 77.0152 36.995 80.0565 33.3641 79.4457C29.3643 78.7728 25.4773 77.4933 21.8404 75.6403C16.216 72.7745 11.3497 68.6183 7.63932 63.5114C3.92898 58.4046 1.47995 52.4921 0.49247 46.2574C-0.49501 40.0227 0.00709534 33.6428 1.95774 27.6393C3.90838 21.6359 7.25217 16.1793 11.7157 11.7157C16.1793 7.25217 21.6359 3.90839 27.6393 1.95774C33.6428 0.00709534 40.0227 -0.49501 46.2574 0.49247C50.2889 1.131 54.1857 2.38063 57.817 4.18725C61.1135 5.82725 61.757 10.054 59.5928 13.0328C57.4287 16.0115 53.271 16.5789 49.8495 15.219C48.0264 14.4944 46.1227 13.9707 44.1716 13.6616C40.0151 13.0033 35.7619 13.3381 31.7595 14.6385C27.7572 15.9389 24.1195 18.1681 21.1438 21.1438C18.1681 24.1195 15.9389 27.7572 14.6385 31.7595C13.3381 35.7619 13.0033 40.0151 13.6616 44.1716C14.32 48.3281 15.9527 52.2697 18.4262 55.6743C20.8998 59.0788 24.144 61.8497 27.8936 63.7602C29.6537 64.657 31.5017 65.3523 33.4025 65.8377C36.9699 66.7486 40 69.6514 40 73.3333Z" fill="#FFC107"/>
</svg>
